<svg width="440" height="80" xmlns="http://www.w3.org/2000/svg">
 <g>
  <title>Layer 1</title>
  <path d="m453,104l1,1l-1,-1z" fill="#5f679a" id="svg_79"/>
  <path d="m455,108l1,1l-1,-1z" fill="#9ea2c2" id="svg_95"/>
  <path d="m444,114l1,1l-1,-1z" fill="#071161" id="svg_138"/>
  <path d="m447.333,114.667l0.334,0.666l-0.334,-0.666z" fill="#5f679a" id="svg_139"/>
  <path d="m42.3333,117.667l0.3334,0.666l-0.3334,-0.666z" fill="#071161" id="svg_149"/>
  <path d="m38,121l1,1l-1,-1z" fill="#071161" id="svg_171"/>
  <path d="m456,121l1,1l-1,-1z" fill="#5f679a" id="svg_176"/>
  <path d="m445,138l1,1l-1,-1z" fill="#5f679a" id="svg_285"/>
  <path d="m446,138l1,1l-1,-1z" fill="#9ea2c2" id="svg_286"/>
  <path d="m447,138l1,1l-1,-1z" fill="#5f679a" id="svg_287"/>
  <path d="m446,140l1,1l-1,-1z" fill="#9ea2c2" id="svg_302"/>
  <path d="m443,141l1,1l-1,-1z" fill="#9ea2c2" id="svg_306"/>
  <path d="m450,141l1,1l-1,-1z" fill="#5f679a" id="svg_307"/>
  <path d="m452,143l1,1l-1,-1z" fill="#5f679a" id="svg_318"/>
  <path d="m454,147l1,1l-1,-1z" fill="#5f679a" id="svg_337"/>
  <path d="m32,148l1,1l-1,-1z" fill="#071161" id="svg_338"/>
  <path d="m448,156l1,1l-1,-1z" fill="#9ea2c2" id="svg_404"/>
  <path d="m59,73l1,1l-1,-1m13,0l0,1l4,0l-4,-1z" fill="#9ea2c2" id="svg_452"/>
  <path d="m76,73l1,1l-1,-1m4,0l1,1l-1,-1m17,0l1,1l-1,-1m15,0l1,1l-1,-1z" fill="#5f679a" id="svg_453"/>
  <path d="m113,73l0,1l14,0l-14,-1z" fill="#9ea2c2" id="svg_454"/>
  <path d="m127,73l1,1l-1,-1z" fill="#5f679a" id="svg_455"/>
  <path d="m135,73l1,1l-1,-1m6,0l0,1l7,0l-7,-1z" fill="#9ea2c2" id="svg_456"/>
  <path d="m148,73l0,1l6,0l-6,-1m102.667,0.333l0.666,0.334l-0.666,-0.334z" fill="#5f679a" id="svg_457"/>
  <path d="m252,73l0,1l15,0l-15,-1z" fill="#9ea2c2" id="svg_458"/>
  <path d="m267,73l1,1l-1,-1z" fill="#5f679a" id="svg_459"/>
  <path d="m304,73l1,1l-1,-1z" fill="#9ea2c2" id="svg_460"/>
  <path d="m324,73l1,1l-1,-1z" fill="#5f679a" id="svg_461"/>
  <path d="m325.667,73.333l0.666,0.334l-0.666,-0.334m9,0l0.666,0.334l-0.666,-0.334z" fill="#9ea2c2" id="svg_462"/>
  <path d="m336.667,73.333l0.666,0.334l-0.666,-0.334z" fill="#5f679a" id="svg_463"/>
  <path d="m360,73l1,1l-1,-1m13,0l0,1l4,0l-4,-1z" fill="#9ea2c2" id="svg_464"/>
  <path d="m377,73l1,1l-1,-1m21,0l1,1l-1,-1z" fill="#5f679a" id="svg_465"/>
  <path d="m399.667,73.333l0.666,0.334l-0.666,-0.334m8,0l0.666,0.334l-0.666,-0.334z" fill="#9ea2c2" id="svg_466"/>
  <path d="m409,73l1,1l-1,-1z" fill="#5f679a" id="svg_467"/>
  <path d="m31,4.468c-20.7759,3.924 -28.3682,32.449 -24.4823,50.532c2.8394,13.213 14.9608,22.436 28.4823,17.895c6.7686,-2.273 21.8022,-13.267 16.3812,-21.876c-8.805,-13.983 -17.2577,17.897 -24.8087,3.872c-4.0433,-7.509 -1.4098,-20.575 1.946,-27.891c1.2456,-2.715 3.8081,-7.595 7.3333,-7.654c4.6638,-0.079 1.0398,9.094 1.5556,11.506c0.9486,4.435 12.9256,4.445 15.8542,2.12c2.8482,-2.261 2.877,-8.719 2.5609,-11.972c-1.2296,-12.656 -13.0493,-18.757 -24.8225,-16.532z" fill="#72040d" id="svg_2"/>
  <path d="m31,4l-1,2l1,-2z" fill="#5f679a" id="svg_3"/>
  <path d="m32,4l0,1l4,0l-4,-1z" fill="#9ea2c2" id="svg_4"/>
  <path d="m63,5l0,5l1,0l0,-4l5,0l-6,10l0,-4l-1,0l-2,46l1.6034,14.972l16.3966,0.028l-2,-16l0,-6c5.629,-7.43 2.2,-25.676 3.424,-35c0.395,-3.004 1.809,-8.726 -1.027,-10.972c-3.59,-2.843 -11.2776,-0.353 -15.397,-0.028z" fill="#fcfcfd" id="svg_5"/>
  <path d="m47,4l1,1l-1,-1z" fill="#9ea2c2" id="svg_6"/>
  <path d="m138,4l0,1l6,0l-6,-1z" fill="#5f679a" id="svg_7"/>
  <path d="m144,4l0,1l7,0l-7,-1z" fill="#9ea2c2" id="svg_8"/>
  <path d="m183,4l1,14l1,0l-2,-14m99,0l0,1l4,0l-4,-1m57.667,0.333l0.666,0.334l-0.666,-0.334m24.333,-0.333l1,1l-1,-1z" fill="#5f679a" id="svg_9"/>
  <path d="m333,4l0,1l4,0l-4,-1z" fill="#9ea2c2" id="svg_10"/>
  <path d="m364,5l0,8l1,0l0,-7l8,0l0,1l-3,0c-5.73,11.805 -5.729,28.86 -6,42l-1,0l1,-34l-1,0l-1.996,43l1.599,14.972l16.397,0.028l-2,-17l2.039,-16l1.961,-36l-17,1z" fill="#fcfcfd" id="svg_11"/>
  <path d="m349,4l1,1l-1,-1m26,0l1,1l-1,-1z" fill="#5f679a" id="svg_12"/>
  <path d="m376.667,4.333l0.666,0.334l-0.666,-0.334z" fill="#9ea2c2" id="svg_13"/>
  <path d="m419,5l-3,3l1,-3c-35.051,-8.055 -49.569,64.902 -14,68.696c9.111,0.972 29.083,-9.149 26.264,-20.695c-4.175,-17.099 -15.691,8.672 -23.131,4.927c-9.114,-4.588 -4.033,-24.163 -0.805,-30.928c1.309,-2.743 3.916,-7.793 7.527,-7.793c6.178,0 -1.165,11.874 3.467,14.19c3.229,1.614 12.324,1.534 14.499,-1.715c6.828,-10.201 -2.302,-23.356 -11.821,-26.682z" fill="#fcfcfd" id="svg_14"/>
  <path d="m383,4l0,1l1,3l3,-3l-4,-1z" fill="#9ea2c2" id="svg_15"/>
  <path d="m386,4l1,1l-1,-1m-338,1l1,1l-1,-1z" fill="#5f679a" id="svg_16"/>
  <path d="m54.667,5.333l0.666,0.334l-0.666,-0.334z" fill="#9ea2c2" id="svg_17"/>
  <path d="m82,74l15.258,-1.028l1.742,-8.972l-1,-27c7.815,7.195 12.214,25.793 15,36l17,0c0,-6.019 2.669,-20.92 -2,-25l0,-1c5.304,-4.635 2.461,-23.011 3.285,-30c0.347,-2.94 1.784,-7.664 -0.313,-10.258c-2.564,-3.171 -10.352,-1.742 -13.972,-1.742l-2,28c-3.673,-6.969 -4.954,-15.271 -9.075,-21.985c-3.257,-5.305 -17.52,-10.503 -19.947,-1.906c-5.509,19.519 -3.978,44.699 -3.978,64.891z" fill="#fcfcfd" id="svg_18"/>
  <path d="m68,5l1,1l-1,-1z" fill="#9ea2c2" id="svg_19"/>
  <path d="m69,5l1,1l-1,-1m15,0l1,1l-1,-1z" fill="#5f679a" id="svg_20"/>
  <path d="m98.667,5.333l0.666,0.334l-0.666,-0.334z" fill="#9ea2c2" id="svg_21"/>
  <path d="m116,5l0,1l7,0l-7,-1z" fill="#5f679a" id="svg_22"/>
  <path d="m123,5l0,1l7,0l-7,-1z" fill="#9ea2c2" id="svg_23"/>
  <path d="m153,56c0.205,-17.306 23.986,-2.739 24,-21l-2,0l0,5l-1,0l0,-9l-20,1c0.202,-17.126 19.641,-5.446 28.397,-12.988c3.062,-2.639 1.603,-10.362 1.603,-14.012c-9.714,0 -19.344,0.881 -29,0.996c-3.871,0.046 -10.303,-1.223 -13.682,1.032c-3.273,2.184 -2.812,9.438 -3.148,12.972c-1.19,12.49 -2.017,25.467 -2.166,38c-0.042,3.523 -1.587,12.558 1.599,14.958c2.356,1.774 6.717,0.199 9.397,0.081c7.961,-0.348 26.073,2.344 32.682,-2.067c3.297,-2.2 3.809,-12.717 0,-14.659c-3.129,-1.595 -9.212,-0.313 -12.682,-0.313l-14,0z" fill="#fcfcfd" id="svg_24"/>
  <path d="m191,6l0,1l15,0c-4.358,-2.977 -10.066,-2.175 -15,-1m39,0l0,1l10,0l0,1l-11,0l-11,28l-1,0c-1.001,-6.801 -3.154,-21.354 -8.005,-26.397c-2.718,-2.824 -16.496,-3.137 -18.392,0.715c-2.172,4.416 -0.362,11.849 -0.693,16.682c-0.965,14.097 -2.895,28.788 -2.106,42.941c0.342,6.138 14.244,5.221 17.168,1.459c3.04,-3.91 1.028,-14.606 1.028,-19.4l1,0c2.887,19.547 15.886,17.751 21,0c1.823,6.17 -2.148,14.086 0.603,19.682c1.756,3.571 15.966,3.981 17.369,0c1.303,-3.696 0.028,-9.746 0.028,-13.682l0,-32c0,-4.826 1.167,-11.557 -1.179,-15.956c-2.977,-5.582 -9.525,-5.609 -14.821,-4.044z" fill="#72040d" id="svg_25"/>
  <path d="m244.667,5.333l0.666,0.334l-0.666,-0.334z" fill="#5f679a" id="svg_26"/>
  <path d="m246.667,5.333l0.666,0.334l-0.666,-0.334z" fill="#9ea2c2" id="svg_27"/>
  <path d="m251,73l18,0c2.082,-10.69 7.929,-11.699 18,-13l1,14c3.938,0 14.304,1.842 16.968,-1.603c3.252,-4.205 -1.653,-18.445 -2.579,-23.397c-2.162,-11.56 -2.324,-29.069 -9.117,-38.956c-5.372,-7.819 -18.539,-6.309 -22.267,1.961c-1.929,4.277 -3.663,8.64 -5.405,12.995c-2.633,6.584 -5.446,13.194 -7.456,20c-2.693,9.118 -6.726,18.423 -7.144,28z" fill="#fcfcfd" id="svg_28"/>
  <path d="m256,5l1,1l-1,-1z" fill="#9ea2c2" id="svg_29"/>
  <path d="m257,5l1,1l-1,-1m44,0l1,1l-1,-1z" fill="#5f679a" id="svg_30"/>
  <path d="m302,5l1,1l-1,-1z" fill="#9ea2c2" id="svg_31"/>
  <path d="m333,54l6,-1c-5.227,8.547 -11.784,5.095 -12.482,-4c-0.52,-6.763 0.612,-16.002 3.899,-21.999c6.045,-11.027 9.626,-2.979 9.583,4.999l16,0c1.065,-5.734 2.054,-12.525 -0.573,-17.999c-9.247,-19.277 -34.542,-4.989 -40.334,8.999c-4.973,12.012 -7.855,32.83 0.545,43.957c10.856,14.38 33.381,5.274 38.894,-8.957c1.885,-4.864 3.752,-12.031 1.15,-16.942c-2.947,-5.561 -15.481,-6.744 -19.94,-2.316c-3.3,3.276 -2.73,10.979 -2.742,15.258z" fill="#fcfcfd" id="svg_32"/>
  <path d="m312.667,5.333l0.666,0.334l-0.666,-0.334z" fill="#9ea2c2" id="svg_33"/>
  <path d="m314,5l1,1l-1,-1z" fill="#5f679a" id="svg_34"/>
  <path d="m349,5l0,5l1,0l-1,-5z" fill="#9ea2c2" id="svg_35"/>
  <path d="m371,5l1,1l-1,-1z" fill="#5f679a" id="svg_36"/>
  <path d="m372,5l1,1l-1,-1m16.667,0.333l0.666,0.334l-0.666,-0.334m-358.667,0.667l1,7l1,0l-2,-7z" fill="#9ea2c2" id="svg_37"/>
  <path d="m32,6l1,1l-1,-1z" fill="#5f679a" id="svg_38"/>
  <path d="m34,6l0,1l3,0l-3,-1m4.6667,0.333l0.6666,0.334l-0.6666,-0.334m9.3333,-0.333l1,1l-1,-1z" fill="#9ea2c2" id="svg_39"/>
  <path d="m53.333,6.667l0.334,0.666l-0.334,-0.666z" fill="#5f679a" id="svg_40"/>
  <path d="m70,6l1,1l-1,-1m14,0l0,4l1,0l-1,-4z" fill="#9ea2c2" id="svg_41"/>
  <path d="m100,6l0,5l1,0l-1,-5z" fill="#5f679a" id="svg_42"/>
  <path d="m108,6l1,1l-1,-1z" fill="#9ea2c2" id="svg_43"/>
  <path d="m241,6l1,1l-1,-1z" fill="#5f679a" id="svg_44"/>
  <path d="m258,6l1,1l-1,-1z" fill="#9ea2c2" id="svg_45"/>
  <path d="m298,6l1,1l-1,-1z" fill="#5f679a" id="svg_46"/>
  <path d="m299,6l1,1l-1,-1m17,0l1,1l-1,-1z" fill="#9ea2c2" id="svg_47"/>
  <path d="m331,6l0,4l1,0l-1,-4m2,0l1,1l-1,-1z" fill="#5f679a" id="svg_48"/>
  <path d="m334,6l0,1l7,0l-7,-1z" fill="#9ea2c2" id="svg_49"/>
  <path d="m369,6l1,1l-1,-1z" fill="#5f679a" id="svg_50"/>
  <path d="m370,6l1,1l-1,-1m6,0l2,2l-2,-2m11,0l1,1l-1,-1m4,0l1,1l-1,-1z" fill="#9ea2c2" id="svg_51"/>
  <path d="m40,7l1,1l-1,-1m24,0l0,7l1,0l3,-7l-4,0z" fill="#071161" id="svg_52"/>
  <path d="m38,7l1,1l-1,-1m10,0l0,4l1,0l-1,-4z" fill="#5f679a" id="svg_53"/>
  <path d="m71,7l1,1l-1,-1m36,0l1,1l-1,-1z" fill="#9ea2c2" id="svg_54"/>
  <path d="m240,7l1,1l-1,-1z" fill="#5f679a" id="svg_55"/>
  <path d="m259,7l1,1l-1,-1z" fill="#9ea2c2" id="svg_56"/>
  <path d="m296,7l1,1l-1,-1m22,0l1,1l-1,-1z" fill="#5f679a" id="svg_57"/>
  <path d="m365,7l0,7l1,0l3,-7l-4,0z" fill="#071161" id="svg_58"/>
  <path d="m339,7l1,1l-1,-1z" fill="#5f679a" id="svg_59"/>
  <path d="m368,7l1,1l-1,-1z" fill="#9ea2c2" id="svg_60"/>
  <path d="m385,7l1,1l-1,-1m8,0l1,1l-1,-1m-358,1l1,1l-1,-1z" fill="#5f679a" id="svg_61"/>
  <path d="m53,8l0,4l1,0l-1,-4m19,0l1,1l-1,-1m45.667,0.333l0.666,0.334l-0.666,-0.334m5,0l0.666,0.334l-0.666,-0.334m6.333,-0.333l1,1l-1,-1m111,0l1,1l-1,-1m20,0l1,1l-1,-1z" fill="#9ea2c2" id="svg_62"/>
  <path d="m294,8l1,1l-1,-1z" fill="#5f679a" id="svg_63"/>
  <path d="m319,8l1,1l-1,-1z" fill="#9ea2c2" id="svg_64"/>
  <path d="m333.333,8.667l0.334,0.666l-0.334,-0.666m32.667,-0.667l1,1l-1,-1z" fill="#5f679a" id="svg_65"/>
  <path d="m394,8l1,1l-1,-1m-359,1l1,1l-1,-1m2,0l1,1l-1,-1z" fill="#9ea2c2" id="svg_66"/>
  <path d="m73,9l1,1l-1,-1m188,0l1,1l-1,-1z" fill="#5f679a" id="svg_67"/>
  <path d="m293,9l1,1l-1,-1m27,0l1,1l-1,-1z" fill="#9ea2c2" id="svg_68"/>
  <path d="m336,9l-1,2l1,-2z" fill="#5f679a" id="svg_69"/>
  <path d="m338,9l1,1l-1,-1m27,0l1,1l-1,-1m30,0l1,1l-1,-1z" fill="#9ea2c2" id="svg_70"/>
  <path d="m34,10l1,1l-1,-1z" fill="#5f679a" id="svg_71"/>
  <path d="m271,10l1,1l-1,-1m53,0l1,1l-1,-1m29,0l1,1l-1,-1m10,0l3,7l-3,-7m5,0l1,1l-1,-1z" fill="#9ea2c2" id="svg_72"/>
  <path d="m381,10l0,4l1,0l-1,-4z" fill="#5f679a" id="svg_73"/>
  <path d="m364,10l1,1l-1,-1m32,0l1,1l-1,-1m-362,1l1,1l-1,-1m40,0l1,1l-1,-1z" fill="#9ea2c2" id="svg_74"/>
  <path d="m138,11l0,3l1,0l-1,-3z" fill="#5f679a" id="svg_75"/>
  <path d="m116,11l1,1l-1,-1m139,0l1,1l-1,-1z" fill="#9ea2c2" id="svg_76"/>
  <path d="m262,11l1,1l-1,-1m60,0l1,1l-1,-1z" fill="#5f679a" id="svg_77"/>
  <path d="m335.333,11.667l0.334,0.666l-0.334,-0.666m27.667,-0.667l1,1l-1,-1z" fill="#9ea2c2" id="svg_78"/>
  <path d="m158,12l0,3l1,0l-1,-3z" fill="#9ea2c2" id="svg_80"/>
  <path d="m127,12l1,1l-1,-1m111,0l1,1l-1,-1z" fill="#5f679a" id="svg_81"/>
  <path d="m344.333,12.667l0.334,0.666l-0.334,-0.666m49.667,-0.667l1,1l-1,-1z" fill="#9ea2c2" id="svg_82"/>
  <path d="m63,13l2,3l-2,-3z" fill="#5f679a" id="svg_83"/>
  <path d="m65,13l1,1l-1,-1z" fill="#9ea2c2" id="svg_84"/>
  <path d="m107,13l1,1l-1,-1z" fill="#5f679a" id="svg_85"/>
  <path d="m270,13l1,1l-1,-1m17,0l1,1l-1,-1m68,0l1,1l-1,-1z" fill="#9ea2c2" id="svg_86"/>
  <path d="m366,13l1,1l-1,-1m27,0l1,1l-1,-1z" fill="#5f679a" id="svg_87"/>
  <path d="m430,13l1,1l-1,-1m-366,1l1,1l-1,-1m43,0l1,1l-1,-1m31,0l0,4l1,0l-1,-4m27,0l1,1l-1,-1z" fill="#9ea2c2" id="svg_88"/>
  <path d="m269,14l1,1l-1,-1m20,0l1,1l-1,-1z" fill="#5f679a" id="svg_89"/>
  <path d="m295.333,14.667l0.334,0.666l-0.334,-0.666m52.667,-0.667l1,1l-1,-1z" fill="#9ea2c2" id="svg_90"/>
  <path d="m392,14l1,1l-1,-1z" fill="#5f679a" id="svg_91"/>
  <path d="m415,14l0,2l2,0l0,-2l-2,0m-352,1l1,1l-1,-1m16,0l0,5l1,0l-1,-5m52,0l0,5l1,0l-1,-5m29,0l1,1l-1,-1m3,0l1,1l-1,-1m106,0l1,1l-1,-1m50,0l1,1l-1,-1m25,0l1,1l-1,-1z" fill="#9ea2c2" id="svg_92"/>
  <path d="m356,15l1,1l-1,-1z" fill="#5f679a" id="svg_93"/>
  <path d="m365,15l1,1l-1,-1z" fill="#071161" id="svg_94"/>
  <path d="m33,16l1,1l-1,-1z" fill="#071161" id="svg_96"/>
  <path d="m84,16l0,3l1,0l-1,-3m24,0l1,1l-1,-1m7,0l0,5l1,0l-1,-5m203,0l1,1l-1,-1z" fill="#5f679a" id="svg_97"/>
  <path d="m338,16l1,1l-1,-1m18,0l1,1l-1,-1m35,0l1,1l-1,-1m19,0l1,1l-1,-1z" fill="#9ea2c2" id="svg_98"/>
  <path d="m61,17l0,4l1,0l-1,-4z" fill="#5f679a" id="svg_99"/>
  <path d="m63,17l0,4l1,0l-1,-4z" fill="#9ea2c2" id="svg_100"/>
  <path d="m64,17l0,3l1,0l-1,-3z" fill="#5f679a" id="svg_101"/>
  <path d="m65,17l1,1l-1,-1m203,0l1,1l-1,-1m21,0l1,1l-1,-1z" fill="#9ea2c2" id="svg_102"/>
  <path d="m296,17l1,1l-1,-1z" fill="#5f679a" id="svg_103"/>
  <path d="m347,17l2,2l-2,-2z" fill="#9ea2c2" id="svg_104"/>
  <path d="m365.667,17.333l0.666,0.334l-0.666,-0.334m24.333,-0.333l1,1l-1,-1m42.333,0.667l0.334,0.666l-0.334,-0.666z" fill="#5f679a" id="svg_105"/>
  <path d="m43,18l1,1l-1,-1z" fill="#071161" id="svg_106"/>
  <path d="m109,18l1,1l-1,-1z" fill="#5f679a" id="svg_107"/>
  <path d="m282,18l1,1l-1,-1m14,0l1,1l-1,-1m21,0l1,1l-1,-1m28,0l1,1l-1,-1z" fill="#9ea2c2" id="svg_108"/>
  <path d="m347,18l1,1l-1,-1z" fill="#5f679a" id="svg_109"/>
  <path d="m364,18l0,4l1,0l-1,-4z" fill="#9ea2c2" id="svg_110"/>
  <path d="m365,18l0,7l1,0l-1,-7z" fill="#071161" id="svg_111"/>
  <path d="m411,18l1,1l-1,-1z" fill="#9ea2c2" id="svg_112"/>
  <path d="m412,18l0,1l3,0l-3,-1m8,0l1,1l-1,-1z" fill="#5f679a" id="svg_113"/>
  <path d="m84,19l0,5l1,0l-1,-5m25,0l1,1l-1,-1m74,0l1,1l-1,-1z" fill="#9ea2c2" id="svg_114"/>
  <path d="m267,19l1,1l-1,-1m49,0l1,1l-1,-1m41,0l0,7l1,0l-1,-7z" fill="#5f679a" id="svg_115"/>
  <path d="m380,19l0,5l1,0l-1,-5m9,0l1,1l-1,-1z" fill="#9ea2c2" id="svg_116"/>
  <path d="m410,19l1,1l-1,-1z" fill="#5f679a" id="svg_117"/>
  <path d="m415,19l1,1l-1,-1m7,1l0,1l3,0l-3,-1m10,-1l0,3l1,0l-1,-3z" fill="#9ea2c2" id="svg_118"/>
  <path d="m46,20l0,3l1,0l-1,-3m18,0l0,4l1,0l-1,-4z" fill="#071161" id="svg_119"/>
  <path d="m79,20l0,4l1,0l-1,-4m52,0l0,4l1,0l-1,-4z" fill="#5f679a" id="svg_120"/>
  <path d="m178,20l0,1l3,0l-3,-1z" fill="#9ea2c2" id="svg_121"/>
  <path d="m181.667,20.333l0.666,0.334l-0.666,-0.334z" fill="#5f679a" id="svg_122"/>
  <path d="m267,20l1,1l-1,-1z" fill="#9ea2c2" id="svg_123"/>
  <path d="m290,20l1,1l-1,-1z" fill="#5f679a" id="svg_124"/>
  <path d="m335,20l1,1l-1,-1z" fill="#9ea2c2" id="svg_125"/>
  <path d="m338,20l1,1l-1,-1z" fill="#5f679a" id="svg_126"/>
  <path d="m344,20l1,4l1,0l1,-4l-3,0z" fill="#9ea2c2" id="svg_127"/>
  <path d="m345,20l1,1l-1,-1m17,0l0,4l1,0l-1,-4m26,0l1,1l-1,-1m27,0l0,3l1,0l-1,-3z" fill="#5f679a" id="svg_128"/>
  <path d="m423,20l1,1l-1,-1m-380.3333,1.333l0.6666,0.334l-0.6666,-0.334z" fill="#071161" id="svg_129"/>
  <path d="m61,21l0,4l1,0l-1,-4z" fill="#9ea2c2" id="svg_130"/>
  <path d="m63,21l1,1l-1,-1m47,0l1,1l-1,-1z" fill="#5f679a" id="svg_131"/>
  <path d="m115,21l0,6l1,0l-1,-6m53,0l0,1l4,0l-4,-1z" fill="#9ea2c2" id="svg_132"/>
  <path d="m172,21l0,1l3,0l-3,-1z" fill="#5f679a" id="svg_133"/>
  <path d="m235,21l1,1l-1,-1z" fill="#071161" id="svg_134"/>
  <path d="m297,21l1,1l-1,-1m18,0l1,1l-1,-1m19,0l1,1l-1,-1m5,0l1,1l-1,-1z" fill="#5f679a" id="svg_135"/>
  <path d="m366.333,21.667l0.334,0.666l-0.334,-0.666m21.667,-0.667l1,1l-1,-1z" fill="#9ea2c2" id="svg_136"/>
  <path d="m408,21l1,1l-1,-1m11,0l1,1l-1,-1z" fill="#5f679a" id="svg_137"/>
  <path d="m63,22l1,7l1,0l-2,-7m47,0l1,1l-1,-1z" fill="#9ea2c2" id="svg_140"/>
  <path d="m137,22l0,4l1,0l-1,-4z" fill="#5f679a" id="svg_141"/>
  <path d="m159,22l0,1l3,0l-3,-1z" fill="#9ea2c2" id="svg_142"/>
  <path d="m162,22l0,1l3,0l-3,-1z" fill="#5f679a" id="svg_143"/>
  <path d="m266,22l1,1l-1,-1m31.333,0.667l0.334,0.666l-0.334,-0.666z" fill="#9ea2c2" id="svg_144"/>
  <path d="m333,22l1,1l-1,-1m54,0l1,1l-1,-1z" fill="#5f679a" id="svg_145"/>
  <path d="m407,22l1,1l-1,-1m17,0l1,1l-1,-1z" fill="#9ea2c2" id="svg_146"/>
  <path d="m314,23l1,1l-1,-1m14,0l1,1l-1,-1z" fill="#5f679a" id="svg_147"/>
  <path d="m332,23l1,1l-1,-1m8.333,0.667l0.334,0.666l-0.334,-0.666m54.334,-0.334l0.666,0.334l-0.666,-0.334m20.666,0.334l0.334,0.666l-0.334,-0.666m7.667,-0.667l1,1l-1,-1m9,0l0,5l1,0l-1,-5z" fill="#9ea2c2" id="svg_148"/>
  <path d="m64,24l1,1l-1,-1z" fill="#5f679a" id="svg_150"/>
  <path d="m94,24l1,1l-1,-1m4,0l-2,1l0,1l2,-2m13,0l1,1l-1,-1m43,0l0,3l1,0l-1,-3z" fill="#9ea2c2" id="svg_151"/>
  <path d="m265,24l1,1l-1,-1z" fill="#5f679a" id="svg_152"/>
  <path d="m268.333,24.667l0.334,0.666l-0.334,-0.666m45.667,-0.667l1,1l-1,-1m17,0l1,1l-1,-1m31,0l0,6l1,0l-1,-6z" fill="#9ea2c2" id="svg_153"/>
  <path d="m380,24l0,4l1,0l-1,-4m6,0l1,1l-1,-1m9.333,0.667l0.334,0.666l-0.334,-0.666m10.667,-0.667l1,1l-1,-1z" fill="#5f679a" id="svg_154"/>
  <path d="m265,25l1,1l-1,-1m62.667,0.333l0.666,0.334l-0.666,-0.334z" fill="#9ea2c2" id="svg_155"/>
  <path d="m331,25l1,1l-1,-1z" fill="#5f679a" id="svg_156"/>
  <path d="m346,25l1,1l-1,-1z" fill="#9ea2c2" id="svg_157"/>
  <path d="m365,25l0,3l1,0l-1,-3z" fill="#5f679a" id="svg_158"/>
  <path d="m386,25l1,1l-1,-1m6,0l0,2l2,0l-2,-2z" fill="#9ea2c2" id="svg_159"/>
  <path d="m112,26l1,1l-1,-1z" fill="#5f679a" id="svg_160"/>
  <path d="m137,26l0,5l1,0l-1,-5z" fill="#9ea2c2" id="svg_161"/>
  <path d="m298,26l1,1l-1,-1m15,0l1,1l-1,-1z" fill="#5f679a" id="svg_162"/>
  <path d="m330,26l1,1l-1,-1m34,0l0,10l1,0l-1,-10m41,0l1,1l-1,-1z" fill="#9ea2c2" id="svg_163"/>
  <path d="m63.3333,27.667l0.3334,0.666l-0.3334,-0.666z" fill="#5f679a" id="svg_164"/>
  <path d="m112,27l1,1l-1,-1z" fill="#9ea2c2" id="svg_165"/>
  <path d="m154,27l0,4l1,0l-1,-4z" fill="#5f679a" id="svg_166"/>
  <path d="m264,27l1,1l-1,-1m4,0l1,1l-1,-1m12.333,0.667l0.334,0.666l-0.334,-0.666m17.667,-0.667l1,1l-1,-1m15,0l1,1l-1,-1z" fill="#9ea2c2" id="svg_167"/>
  <path d="m330,27l1,1l-1,-1z" fill="#5f679a" id="svg_168"/>
  <path d="m385,27l1,1l-1,-1z" fill="#9ea2c2" id="svg_169"/>
  <path d="m414,27l1,1l-1,-1z" fill="#5f679a" id="svg_170"/>
  <path d="m83,28l0,4l1,0l-1,-4m196,0l1,1l-1,-1z" fill="#5f679a" id="svg_172"/>
  <path d="m329,28l1,1l-1,-1z" fill="#9ea2c2" id="svg_173"/>
  <path d="m391,28l1,1l-1,-1z" fill="#5f679a" id="svg_174"/>
  <path d="m392,30l3,0l-1,-2l-2,2m12,-2l1,1l-1,-1m10,0l1,1l-1,-1z" fill="#9ea2c2" id="svg_175"/>
  <path d="m16,29l1,1l-1,-1m47,0l0,3l1,0l-1,-3z" fill="#071161" id="svg_177"/>
  <path d="m113,29l1,1l-1,-1m150,0l1,1l-1,-1m49,0l1,1l-1,-1m17,0l1,1l-1,-1m10.333,0.667l0.334,0.666l-0.334,-0.666z" fill="#5f679a" id="svg_178"/>
  <path d="m356.333,29.667l0.334,0.666l-0.334,-0.666z" fill="#9ea2c2" id="svg_179"/>
  <path d="m364,29l1,1l-1,-1m40,0l1,1l-1,-1z" fill="#5f679a" id="svg_180"/>
  <path d="m62,30l1,1l-1,-1m16,0l0,7l1,0l-1,-7m35,0l1,1l-1,-1z" fill="#9ea2c2" id="svg_181"/>
  <path d="m166,30l0,1l5,0l-5,-1z" fill="#5f679a" id="svg_182"/>
  <path d="m171,30l0,1l3,0l0,9l1,0l2,-5l0,-1l0,-1l-1,-3l-5,0z" fill="#9ea2c2" id="svg_183"/>
  <path d="m174,30l1,1l-1,-1z" fill="#5f679a" id="svg_184"/>
  <path d="m263,30l1,1l-1,-1z" fill="#9ea2c2" id="svg_185"/>
  <path d="m281,30l1,1l-1,-1m18.333,0.667l0.334,0.666l-0.334,-0.666z" fill="#5f679a" id="svg_186"/>
  <path d="m312,30l1,1l-1,-1z" fill="#9ea2c2" id="svg_187"/>
  <path d="m364,30l1,1l-1,-1z" fill="#071161" id="svg_188"/>
  <path d="m384.333,30.667l0.334,0.666l-0.334,-0.666m10.667,-0.667l1,1l-1,-1z" fill="#9ea2c2" id="svg_189"/>
  <path d="m413,30l0,3l1,0l-1,-3z" fill="#5f679a" id="svg_190"/>
  <path d="m64.3333,31.667l0.3334,0.666l-0.3334,-0.666m29.6667,-0.667l1,1l-1,-1z" fill="#9ea2c2" id="svg_191"/>
  <path d="m114,31l1,1l-1,-1z" fill="#5f679a" id="svg_192"/>
  <path d="m130,31l0,13l1,0l-1,-13m24,0l0,1l5,0l-5,-1z" fill="#9ea2c2" id="svg_193"/>
  <path d="m175,31l0,2l2,0l0,-2l-2,0z" fill="#fcfcfd" id="svg_194"/>
  <path d="m281,31l-4,14l7,0l-3,-14z" fill="#071161" id="svg_195"/>
  <path d="m328.333,31.667l0.334,0.666l-0.334,-0.666z" fill="#9ea2c2" id="svg_196"/>
  <path d="m364,31l1,1l-1,-1z" fill="#5f679a" id="svg_197"/>
  <path d="m403,31l1,1l-1,-1m28,0l1,1l-1,-1z" fill="#9ea2c2" id="svg_198"/>
  <path d="m60,32l0,6l1,0l-1,-6m3,0l0,4l1,0l-1,-4z" fill="#5f679a" id="svg_199"/>
  <path d="m83,32l0,5l1,0l-1,-5m15,0l1,1l-1,-1m16,0l1,1l-1,-1m38,0l0,2l2,0l-2,-2m110,0l1,1l-1,-1m15.667,0.333l0.666,0.334l-0.666,-0.334m2.333,-0.333l1,1l-1,-1m19.333,0.667l0.334,0.666l-0.334,-0.666z" fill="#9ea2c2" id="svg_200"/>
  <path d="m341,32l0,1l10,0l-10,-1m24,0l1,1l-1,-1z" fill="#5f679a" id="svg_201"/>
  <path d="m388,32l1,1l-1,-1m4,0l1,1l-1,-1z" fill="#9ea2c2" id="svg_202"/>
  <path d="m403,32l1,1l-1,-1m28,0l1,1l-1,-1z" fill="#5f679a" id="svg_203"/>
  <path d="m75,33l1,1l-1,-1z" fill="#9ea2c2" id="svg_204"/>
  <path d="m177,33l0,10l1,0l-1,-10z" fill="#5f679a" id="svg_205"/>
  <path d="m277,33l1,1l-1,-1z" fill="#071161" id="svg_206"/>
  <path d="m280,33l1,1l-1,-1z" fill="#5f679a" id="svg_207"/>
  <path d="m282.333,33.667l0.334,0.666l-0.334,-0.666z" fill="#9ea2c2" id="svg_208"/>
  <path d="m311.333,33.667l0.334,0.666l-0.334,-0.666m16.667,-0.667l1,1l-1,-1z" fill="#5f679a" id="svg_209"/>
  <path d="m376,33l1,1l-1,-1z" fill="#9ea2c2" id="svg_210"/>
  <path d="m383,33l1,1l-1,-1z" fill="#5f679a" id="svg_211"/>
  <path d="m390,33l1,1l-1,-1m24,0l1,1l-1,-1m16,0l1,1l-1,-1m-271,1l1,1l-1,-1z" fill="#9ea2c2" id="svg_212"/>
  <path d="m261,34l1,1l-1,-1z" fill="#5f679a" id="svg_213"/>
  <path d="m276,34l1,1l-1,-1z" fill="#9ea2c2" id="svg_214"/>
  <path d="m277,34l1,1l-1,-1z" fill="#5f679a" id="svg_215"/>
  <path d="m383.333,34.667l0.334,0.666l-0.334,-0.666m-285.333,0.333l1,1l-1,-1m56,0l1,1l-1,-1m107,0l1,1l-1,-1z" fill="#9ea2c2" id="svg_216"/>
  <path d="m276,35l1,1l-1,-1z" fill="#5f679a" id="svg_217"/>
  <path d="m279,35l1,1l-1,-1z" fill="#9ea2c2" id="svg_218"/>
  <path d="m282,35l1,1l-1,-1z" fill="#5f679a" id="svg_219"/>
  <path d="m311.333,35.667l0.334,0.666l-0.334,-0.666m67.667,-0.667l0,9l1,0l-1,-9m11,0l2,2l-2,-2m12.333,0.667l0.334,0.666l-0.334,-0.666m-339.333,0.333l1,1l-1,-1m33,0l1,1l-1,-1m56,0l1,1l-1,-1m7,0l1,1l-1,-1m116,0l2,2l0,-2l-2,0z" fill="#9ea2c2" id="svg_220"/>
  <path d="m279,36l1,1l-1,-1m21,0l1,1l-1,-1z" fill="#5f679a" id="svg_221"/>
  <path d="m327.333,36.667l0.334,0.666l-0.334,-0.666z" fill="#9ea2c2" id="svg_222"/>
  <path d="m340.667,36.333l0.666,0.334l-0.666,-0.334z" fill="#5f679a" id="svg_223"/>
  <path d="m342,36l0,1l3,0l-3,-1m7.667,0.333l0.666,0.334l-0.666,-0.334z" fill="#9ea2c2" id="svg_224"/>
  <path d="m351,36l1,1l-1,-1m13.333,0.667l0.334,0.666l-0.334,-0.666z" fill="#5f679a" id="svg_225"/>
  <path d="m373,36l1,1l-1,-1z" fill="#9ea2c2" id="svg_226"/>
  <path d="m63,37l1,1l-1,-1z" fill="#5f679a" id="svg_227"/>
  <path d="m74.667,37.333l0.666,0.334l-0.666,-0.334z" fill="#9ea2c2" id="svg_228"/>
  <path d="m78,37l0,10l1,0l-1,-10z" fill="#5f679a" id="svg_229"/>
  <path d="m94,37l1,1l-1,-1m4,0l1,6l1,0l-2,-6z" fill="#9ea2c2" id="svg_230"/>
  <path d="m136,37l0,6l1,0l-1,-6m124,0l1,1l-1,-1m15,0l1,1l-1,-1z" fill="#5f679a" id="svg_231"/>
  <path d="m300.333,37.667l0.334,0.666l-0.334,-0.666m35.334,-0.334l0.666,0.334l-0.666,-0.334z" fill="#9ea2c2" id="svg_232"/>
  <path d="m353,37l1,1l-1,-1m8,0l0,6l1,0l-1,-6z" fill="#5f679a" id="svg_233"/>
  <path d="m375.667,37.333l0.666,0.334l-0.666,-0.334z" fill="#9ea2c2" id="svg_234"/>
  <path d="m402.333,37.667l0.334,0.666l-0.334,-0.666z" fill="#5f679a" id="svg_235"/>
  <path d="m60,38l0,7l1,0l-1,-7m2,0l1,4l1,0l-2,-4m198,0l1,1l-1,-1z" fill="#9ea2c2" id="svg_236"/>
  <path d="m275,38l1,1l-1,-1z" fill="#071161" id="svg_237"/>
  <path d="m278,38l1,1l-1,-1z" fill="#9ea2c2" id="svg_238"/>
  <path d="m327.333,38.667l0.334,0.666l-0.334,-0.666z" fill="#5f679a" id="svg_239"/>
  <path d="m334.333,38.667l0.334,0.666l-0.334,-0.666z" fill="#9ea2c2" id="svg_240"/>
  <path d="m354,38l1,1l-1,-1z" fill="#5f679a" id="svg_241"/>
  <path d="m363.667,38.333l0.666,0.334l-0.666,-0.334m31.333,-0.333l1,1l-1,-1m-301,1l1,1l-1,-1z" fill="#9ea2c2" id="svg_242"/>
  <path d="m100,39l1,1l-1,-1z" fill="#5f679a" id="svg_243"/>
  <path d="m150.333,39.667l0.334,0.666l-0.334,-0.666m123.667,-0.667l2,2l-2,-2z" fill="#9ea2c2" id="svg_244"/>
  <path d="m275,39l1,1l-1,-1m3,0l1,1l-1,-1z" fill="#5f679a" id="svg_245"/>
  <path d="m283,39l0,3l1,0l-1,-3m5,0l2,2l0,1l-2,2c2.369,-1.828 1.927,-2.885 0,-5m62,0l1,1l-1,-1z" fill="#9ea2c2" id="svg_246"/>
  <path d="m355,39l1,1l-1,-1m9,0l1,1l-1,-1m18,0l1,5l1,0l-2,-5m-310,1l1,1l-1,-1z" fill="#5f679a" id="svg_247"/>
  <path d="m106,40l1,1l-1,-1m41,0l1,1l-1,-1m112,0l1,1l-1,-1z" fill="#9ea2c2" id="svg_248"/>
  <path d="m274,40l1,1l-1,-1z" fill="#5f679a" id="svg_249"/>
  <path d="m292.667,40.333l0.666,0.334l-0.666,-0.334m71.333,-0.333l-1,3l1,-3m9.667,0.333l0.666,0.334l-0.666,-0.334z" fill="#9ea2c2" id="svg_250"/>
  <path d="m62.3333,41.667l0.3334,0.666l-0.3334,-0.666z" fill="#5f679a" id="svg_251"/>
  <path d="m94,41l1,1l-1,-1m7,0l1,1l-1,-1z" fill="#9ea2c2" id="svg_252"/>
  <path d="m151,41l1,1l-1,-1z" fill="#071161" id="svg_253"/>
  <path d="m152,41l1,1l-1,-1m23,0l1,1l-1,-1m98,0l2,2l-2,-2z" fill="#9ea2c2" id="svg_254"/>
  <path d="m274,41l1,1l-1,-1z" fill="#071161" id="svg_255"/>
  <path d="m277.333,41.667l0.334,0.666l-0.334,-0.666z" fill="#9ea2c2" id="svg_256"/>
  <path d="m301.333,41.667l0.334,0.666l-0.334,-0.666m8.667,-0.667l0,13l1,0l-1,-13m46,0l1,1l-1,-1z" fill="#5f679a" id="svg_257"/>
  <path d="m42,42l1,1l-1,-1m18,0l1,1l-1,-1m5,0l1,1l-1,-1z" fill="#9ea2c2" id="svg_258"/>
  <path d="m69,42l1,1l-1,-1z" fill="#5f679a" id="svg_259"/>
  <path d="m117,42l1,1l-1,-1m2,0l1,1l-1,-1m119,0l1,1l-1,-1z" fill="#9ea2c2" id="svg_260"/>
  <path d="m241.333,42.667l0.334,0.666l-0.334,-0.666z" fill="#071161" id="svg_261"/>
  <path d="m251.333,42.667l0.334,0.666l-0.334,-0.666m9,0l0.334,0.666l-0.334,-0.666z" fill="#5f679a" id="svg_262"/>
  <path d="m261,42l1,1l-1,-1z" fill="#071161" id="svg_263"/>
  <path d="m301.333,42.667l0.334,0.666l-0.334,-0.666z" fill="#5f679a" id="svg_264"/>
  <path d="m318,42l0,5l1,0l-1,-5m6,0l1,1l-1,-1m19,0l1,1l-1,-1m26,0l0,7l1,0l-1,-7z" fill="#9ea2c2" id="svg_265"/>
  <path d="m30,43l1,1l-1,-1z" fill="#071161" id="svg_266"/>
  <path d="m50,43l0,4l1,0l-1,-4m17,0l0,15l1,0l-1,-15z" fill="#5f679a" id="svg_267"/>
  <path d="m104,43l0,9l1,0l-1,-9m14,0l-1,3l1,0l1,0l-1,-3z" fill="#9ea2c2" id="svg_268"/>
  <path d="m120.667,43.333l0.666,0.334l-0.666,-0.334z" fill="#5f679a" id="svg_269"/>
  <path d="m226,43l1,1l-1,-1m14,0l0,2l2,0l-2,-2m21,0l0,2l2,0l-2,-2m8.333,0.667l0.334,0.666l-0.334,-0.666m59.667,-0.667l0,9l1,0l-1,-9z" fill="#9ea2c2" id="svg_270"/>
  <path d="m331.333,43.667l0.334,0.666l-0.334,-0.666z" fill="#5f679a" id="svg_271"/>
  <path d="m350,43l0,5l1,0l-1,-5z" fill="#9ea2c2" id="svg_272"/>
  <path d="m30,44l1,1l-1,-1z" fill="#5f679a" id="svg_273"/>
  <path d="m70,44l1,1l-1,-1m6,0l-1,2l2,0l-1,-2z" fill="#9ea2c2" id="svg_274"/>
  <path d="m98,44l0,28l1,0l-1,-28z" fill="#5f679a" id="svg_275"/>
  <path d="m118,44l1,1l-1,-1z" fill="#071161" id="svg_276"/>
  <path d="m139,44l-3,1l0,1l4,-1l-1,-1m4,0l1,1l-1,-1z" fill="#9ea2c2" id="svg_277"/>
  <path d="m144,44l1,1l-1,-1z" fill="#5f679a" id="svg_278"/>
  <path d="m301.333,44.667l0.334,0.666l-0.334,-0.666z" fill="#9ea2c2" id="svg_279"/>
  <path d="m347,44l0,6l1,0l-1,-6z" fill="#5f679a" id="svg_280"/>
  <path d="m30,45l0,4l1,0l-1,-4m48,0l1,1l-1,-1z" fill="#9ea2c2" id="svg_281"/>
  <path d="m139.667,45.333l0.666,0.334l-0.666,-0.334z" fill="#5f679a" id="svg_282"/>
  <path d="m240,45l1,1l-1,-1z" fill="#071161" id="svg_283"/>
  <path d="m245,45l0,1l6,0l-6,-1m49,0l0,5l1,0l-1,-5m37,0l1,1l-1,-1z" fill="#9ea2c2" id="svg_284"/>
  <path d="m42,46l-2,3l2,-3m17,0l1,1l-1,-1m2.333,0.667l0.334,0.666l-0.334,-0.666z" fill="#9ea2c2" id="svg_288"/>
  <path d="m71.333,46.667l0.334,0.666l-0.334,-0.666z" fill="#5f679a" id="svg_289"/>
  <path d="m73,46l1,1l-1,-1m46.667,0.333l0.666,0.334l-0.666,-0.334m10,0l0.666,0.334l-0.666,-0.334z" fill="#9ea2c2" id="svg_290"/>
  <path d="m131.667,46.333l0.666,0.334l-0.666,-0.334z" fill="#5f679a" id="svg_291"/>
  <path d="m225.333,46.667l0.334,0.666l-0.334,-0.666m13.667,-0.667l0,2l2,0l-2,-2z" fill="#9ea2c2" id="svg_292"/>
  <path d="m240,46l1,1l-1,-1m91,0l1,1l-1,-1z" fill="#5f679a" id="svg_293"/>
  <path d="m343,46l-2,2l0,1l4,2l0,-1l-3,-1l1,-3z" fill="#9ea2c2" id="svg_294"/>
  <path d="m388,46l1,1l-1,-1m4,0l1,1l-1,-1m-350,1l1,1l-1,-1z" fill="#5f679a" id="svg_295"/>
  <path d="m50,47l0,6l1,0l-1,-6z" fill="#9ea2c2" id="svg_296"/>
  <path d="m60,47l1,1l-1,-1z" fill="#5f679a" id="svg_297"/>
  <path d="m96.667,47.333l0.666,0.334l-0.666,-0.334m26,0l0.666,0.334l-0.666,-0.334z" fill="#9ea2c2" id="svg_298"/>
  <path d="m124.667,47.333l0.666,0.334l-0.666,-0.334m134.333,-0.333l1,1l-1,-1m11.333,0.667l0.334,0.666l-0.334,-0.666m47.667,-0.667l0,4l1,0l-1,-4z" fill="#5f679a" id="svg_299"/>
  <path d="m331.333,47.667l0.334,0.666l-0.334,-0.666z" fill="#9ea2c2" id="svg_300"/>
  <path d="m343,47l1,1l-1,-1z" fill="#5f679a" id="svg_301"/>
  <path d="m393,47l1,1l-1,-1m-352,1l1,1l-1,-1z" fill="#5f679a" id="svg_303"/>
  <path d="m116,48l1,1l-1,-1m2,0l1,1l-1,-1m3.333,0.667l0.334,0.666l-0.334,-0.666m137.667,-0.667l1,1l-1,-1z" fill="#9ea2c2" id="svg_304"/>
  <path d="m342,48l1,1l-1,-1m8,0l0,3l1,0l-1,-3z" fill="#5f679a" id="svg_305"/>
  <path d="m62,49l1,1l-1,-1m10,0l1,1l-1,-1m7,0l1,1l-1,-1z" fill="#9ea2c2" id="svg_308"/>
  <path d="m189,49l1,1l-1,-1z" fill="#071161" id="svg_309"/>
  <path d="m224,49l1,1l-1,-1z" fill="#5f679a" id="svg_310"/>
  <path d="m270,49l1,1l-1,-1z" fill="#9ea2c2" id="svg_311"/>
  <path d="m300.333,49.667l0.334,0.666l-0.334,-0.666m94.667,-0.667l1,1l-1,-1z" fill="#5f679a" id="svg_312"/>
  <path d="m30,50l-1,3l1,0l0,-3m12.667,0.333l0.666,0.334l-0.666,-0.334z" fill="#9ea2c2" id="svg_313"/>
  <path d="m45.333,50.667l0.334,0.666l-0.334,-0.666m26.667,-0.667l1,1l-1,-1z" fill="#5f679a" id="svg_314"/>
  <path d="m118,50l2,2l-2,-2z" fill="#9ea2c2" id="svg_315"/>
  <path d="m121,50l0,5l1,0l-1,-5z" fill="#5f679a" id="svg_316"/>
  <path d="m224,50l1,1l-1,-1m95,0l1,1l-1,-1m5.333,0.667l0.334,0.666l-0.334,-0.666m7,0l0.334,0.666l-0.334,-0.666m14.667,-0.667l1,1l-1,-1m40,0l1,1l-1,-1z" fill="#9ea2c2" id="svg_317"/>
  <path d="m44,51l1,1l-1,-1z" fill="#9ea2c2" id="svg_319"/>
  <path d="m188,51l1,1l-1,-1m3,0l-1,2l2,0l-1,-2z" fill="#071161" id="svg_320"/>
  <path d="m257.333,51.667l0.334,0.666l-0.334,-0.666m43,0l0.334,0.666l-0.334,-0.666z" fill="#9ea2c2" id="svg_321"/>
  <path d="m346,51l1,1l-1,-1z" fill="#071161" id="svg_322"/>
  <path d="m347,51l0,4l1,0l-1,-4m38,0l1,1l-1,-1m12,0l1,1l-1,-1z" fill="#5f679a" id="svg_323"/>
  <path d="m38,52l0,3l1,0l1,-3l-2,0m3,0l1,1l-1,-1m32,0l1,1l-1,-1m3,0l1,1l-1,-1m3,0l3,2l-3,-2z" fill="#9ea2c2" id="svg_324"/>
  <path d="m223,52l1,1l-1,-1z" fill="#5f679a" id="svg_325"/>
  <path d="m289,52l-1,2l1,-2z" fill="#9ea2c2" id="svg_326"/>
  <path d="m324,52l1,1l-1,-1m16,0l1,1l-1,-1z" fill="#5f679a" id="svg_327"/>
  <path d="m342,52l1,1l-1,-1z" fill="#9ea2c2" id="svg_328"/>
  <path d="m370,52l1,1l-1,-1z" fill="#5f679a" id="svg_329"/>
  <path d="m61,53l1,1l-1,-1m53,0l1,1l-1,-1m109,0l1,1l-1,-1z" fill="#9ea2c2" id="svg_330"/>
  <path d="m271,53l1,1l-1,-1m18,0l1,1l-1,-1m11,0l1,1l-1,-1z" fill="#5f679a" id="svg_331"/>
  <path d="m306.333,53.667l0.334,0.666l-0.334,-0.666m33.667,-0.667l0,2l2,-2l-2,0m11.333,0.667l0.334,0.666l-0.334,-0.666m18.667,-0.667l1,1l-1,-1m14,0l1,1l-1,-1m14,0l1,1l-1,-1m-355.667,1.667l0.334,0.666l-0.334,-0.666m23.667,-0.667l1,1l-1,-1m8,0l1,1l-1,-1z" fill="#9ea2c2" id="svg_332"/>
  <path d="m158,54l0,10l1,0l-1,-10z" fill="#071161" id="svg_333"/>
  <path d="m271.333,54.667l0.334,0.666l-0.334,-0.666z" fill="#9ea2c2" id="svg_334"/>
  <path d="m295,54l1,1l-1,-1m7.667,0.333l0.666,0.334l-0.666,-0.334z" fill="#5f679a" id="svg_335"/>
  <path d="m343.333,54.667l0.334,0.666l-0.334,-0.666m39.667,-0.667l1,1l-1,-1z" fill="#9ea2c2" id="svg_336"/>
  <path d="m44.333,55.667l0.334,0.666l-0.334,-0.666z" fill="#9ea2c2" id="svg_339"/>
  <path d="m45.333,55.667l0.334,0.666l-0.334,-0.666m28.667,-0.667l1,1l-1,-1z" fill="#5f679a" id="svg_340"/>
  <path d="m79,55l1,1l-1,-1m2,0l1,1l-1,-1z" fill="#9ea2c2" id="svg_341"/>
  <path d="m125,55l0,1l10,0l-10,-1z" fill="#5f679a" id="svg_342"/>
  <path d="m135,55l0,1l12,0l-12,-1m13,0l1,1l-1,-1z" fill="#9ea2c2" id="svg_343"/>
  <path d="m222,55l1,1l-1,-1z" fill="#5f679a" id="svg_344"/>
  <path d="m239,55l1,1l-1,-1z" fill="#9ea2c2" id="svg_345"/>
  <path d="m262,55l1,1l-1,-1z" fill="#071161" id="svg_346"/>
  <path d="m295,55l1,1l-1,-1m28,0l1,1l-1,-1z" fill="#9ea2c2" id="svg_347"/>
  <path d="m345,55l0,1l2,4l1,0l-3,-5m6,0l1,1l-1,-1m2,0l1,1l-1,-1m18,0l1,1l-1,-1m11,0l1,1l-1,-1m-355,1l0,12l1,0l-1,-12z" fill="#5f679a" id="svg_348"/>
  <path d="m149,56l1,1l-1,-1m73,0l1,1l-1,-1z" fill="#9ea2c2" id="svg_349"/>
  <path d="m236,56l1,1l-1,-1z" fill="#5f679a" id="svg_350"/>
  <path d="m237,56l1,1l-1,-1m19,0l1,1l-1,-1m8,0l0,3l1,0l-1,-3z" fill="#9ea2c2" id="svg_351"/>
  <path d="m323,56l1,1l-1,-1z" fill="#5f679a" id="svg_352"/>
  <path d="m346,56l1,1l-1,-1z" fill="#071161" id="svg_353"/>
  <path d="m371,56l1,1l-1,-1z" fill="#9ea2c2" id="svg_354"/>
  <path d="m381,56l1,1l-1,-1m16,0l1,1l-1,-1z" fill="#5f679a" id="svg_355"/>
  <path d="m75,57l1,1l-1,-1m2,0l1,1l-1,-1m4,0l1,1l-1,-1z" fill="#9ea2c2" id="svg_356"/>
  <path d="m236.667,57.333l0.666,0.334l-0.666,-0.334z" fill="#071161" id="svg_357"/>
  <path d="m262,57l1,1l-1,-1z" fill="#9ea2c2" id="svg_358"/>
  <path d="m263,57l0,2l2,-2l-2,0z" fill="#071161" id="svg_359"/>
  <path d="m279.333,57.667l0.334,0.666l-0.334,-0.666z" fill="#9ea2c2" id="svg_360"/>
  <path d="m296,57l1,1l-1,-1z" fill="#5f679a" id="svg_361"/>
  <path d="m304,57l1,1l-1,-1m35.333,0.667l0.334,0.666l-0.334,-0.666m12.667,-0.667l1,1l-1,-1m20,0l1,1l-1,-1m8,0l1,1l-1,-1m16,0l1,1l-1,-1m-356,1l4,2l0,-1l-3,1l1,-2l-2,0m5,0l1,1l-1,-1z" fill="#9ea2c2" id="svg_362"/>
  <path d="m75,58l1,1l-1,-1z" fill="#5f679a" id="svg_363"/>
  <path d="m83,58l0,3l2,-3l-2,0z" fill="#9ea2c2" id="svg_364"/>
  <path d="m272.333,58.667l0.334,0.666l-0.334,-0.666z" fill="#5f679a" id="svg_365"/>
  <path d="m297,58l1,1l-1,-1z" fill="#9ea2c2" id="svg_366"/>
  <path d="m298,58l1,1l-1,-1m4,0l1,1l-1,-1z" fill="#5f679a" id="svg_367"/>
  <path d="m322,58l1,1l-1,-1m19,2l3,-1l-3,1m5,-2l1,1l-1,-1z" fill="#9ea2c2" id="svg_368"/>
  <path d="m352,58l1,1l-1,-1z" fill="#5f679a" id="svg_369"/>
  <path d="m373,58l1,1l-1,-1z" fill="#9ea2c2" id="svg_370"/>
  <path d="m374,58l1,1l-1,-1m3.667,0.333l0.666,0.334l-0.666,-0.334m18.333,-0.333l1,1l-1,-1z" fill="#5f679a" id="svg_371"/>
  <path d="m61,59l1,1l-1,-1m67,0l1,1l-1,-1z" fill="#9ea2c2" id="svg_372"/>
  <path d="m221,59l1,1l-1,-1m42.667,0.333l0.666,0.334l-0.666,-0.334z" fill="#5f679a" id="svg_373"/>
  <path d="m265,59l-3,1l0,3l5,7l1,0l-3,-11z" fill="#071161" id="svg_374"/>
  <path d="m266.333,59.667l0.334,0.666l-0.334,-0.666z" fill="#9ea2c2" id="svg_375"/>
  <path d="m279,59l1,1l-1,-1m43,0l1,1l-1,-1z" fill="#5f679a" id="svg_376"/>
  <path d="m345,59l1,1l-1,-1m50,0l1,1l-1,-1m-350,1l1,1l-1,-1z" fill="#9ea2c2" id="svg_377"/>
  <path d="m49,60l0,5l1,0l-1,-5m27,0l1,1l-1,-1z" fill="#5f679a" id="svg_378"/>
  <path d="m221,60l1,1l-1,-1m30,0l1,1l-1,-1z" fill="#9ea2c2" id="svg_379"/>
  <path d="m252.667,60.333l0.666,0.334l-0.666,-0.334z" fill="#5f679a" id="svg_380"/>
  <path d="m254.333,60.667l0.334,0.666l-0.334,-0.666m18,0l0.334,0.666l-0.334,-0.666m48.667,-0.667l1,1l-1,-1m22,0l1,1l-1,-1m10,0l1,1l-1,-1m-273,1l1,1l-1,-1m151,0l0,3l1,0l-1,-3m15,0l1,1l-1,-1z" fill="#9ea2c2" id="svg_381"/>
  <path d="m247.667,61.333l0.666,0.334l-0.666,-0.334z" fill="#5f679a" id="svg_382"/>
  <path d="m256,61l1,1l-1,-1z" fill="#9ea2c2" id="svg_383"/>
  <path d="m262,61l1,1l-1,-1m4.333,0.667l0.334,0.666l-0.334,-0.666z" fill="#5f679a" id="svg_384"/>
  <path d="m280,61l1,1l-1,-1z" fill="#9ea2c2" id="svg_385"/>
  <path d="m321,61l1,1l-1,-1z" fill="#5f679a" id="svg_386"/>
  <path d="m345,61l-1,3l1,0l1,0l-1,-3z" fill="#9ea2c2" id="svg_387"/>
  <path d="m347,61l0,11l1,0l-1,-11m6,0l1,1l-1,-1m41,0l1,1l-1,-1m-356,1l1,1l-1,-1z" fill="#5f679a" id="svg_388"/>
  <path d="m43,62l0,2l2,-2l-2,0m34,0l1,1l-1,-1m55,0l1,1l-1,-1z" fill="#9ea2c2" id="svg_389"/>
  <path d="m185,62l1,1l-1,-1z" fill="#071161" id="svg_390"/>
  <path d="m220,62l1,1l-1,-1m11,0l1,1l-1,-1z" fill="#5f679a" id="svg_391"/>
  <path d="m241,62l1,1l-1,-1z" fill="#9ea2c2" id="svg_392"/>
  <path d="m242.667,62.333l0.666,0.334l-0.666,-0.334m11.333,-0.333l0,3l1,0l-1,-3m26,0l1,1l-1,-1z" fill="#5f679a" id="svg_393"/>
  <path d="m320,62l1,1l-1,-1m19,0l1,1l-1,-1z" fill="#9ea2c2" id="svg_394"/>
  <path d="m345,62l1,1l-1,-1z" fill="#5f679a" id="svg_395"/>
  <path d="m354,62l1,1l-1,-1m39,0l1,1l-1,-1m-352,1l0,3l1,0l-1,-3m22,0l1,1l-1,-1z" fill="#9ea2c2" id="svg_396"/>
  <path d="m77,63l1,1l-1,-1z" fill="#5f679a" id="svg_397"/>
  <path d="m83.667,63.333l0.666,0.334l-0.666,-0.334z" fill="#9ea2c2" id="svg_398"/>
  <path d="m172,63l1,1l-1,-1z" fill="#071161" id="svg_399"/>
  <path d="m220,63l1,1l-1,-1z" fill="#9ea2c2" id="svg_400"/>
  <path d="m239,63l1,1l-1,-1z" fill="#5f679a" id="svg_401"/>
  <path d="m257,63l1,1l-1,-1m5,0l1,1l-1,-1m19,0l1,1l-1,-1m61,0l0,3l1,0l-1,-3z" fill="#9ea2c2" id="svg_402"/>
  <path d="m354,63l1,1l-1,-1z" fill="#5f679a" id="svg_403"/>
  <path d="m45,64l1,1l-1,-1z" fill="#5f679a" id="svg_405"/>
  <path d="m116,64l1,1l-1,-1m147.667,0.333l0.666,0.334l-0.666,-0.334z" fill="#9ea2c2" id="svg_406"/>
  <path d="m273,64l1,1l-1,-1m8,0l1,1l-1,-1z" fill="#5f679a" id="svg_407"/>
  <path d="m297,64l1,1l-1,-1m22,0l1,1l-1,-1m36,0l1,1l-1,-1m-312,1l0,4l0,-4m6,0l0,8l1,0l-1,-8m29,0l1,1l-1,-1z" fill="#9ea2c2" id="svg_408"/>
  <path d="m103,65l0,8l1,0l-1,-8z" fill="#5f679a" id="svg_409"/>
  <path d="m230,65l1,1l-1,-1m2,0l1,1l-1,-1m6.333,0.667l0.334,0.666l-0.334,-0.666z" fill="#9ea2c2" id="svg_410"/>
  <path d="m265,65l1,1l-1,-1z" fill="#5f679a" id="svg_411"/>
  <path d="m267,65l1,1l-1,-1m6.333,0.667l0.334,0.666l-0.334,-0.666m8.667,-0.667l1,1l-1,-1m36,0l1,1l-1,-1m22,0l1,1l-1,-1m4,0l1,4l1,0l-2,-4z" fill="#9ea2c2" id="svg_412"/>
  <path d="m391,65l1,1l-1,-1m-313,1l1,1l-1,-1z" fill="#5f679a" id="svg_413"/>
  <path d="m80.667,66.333l0.666,0.334l-0.666,-0.334m26.333,-0.333l1,1l-1,-1m6,0l1,1l-1,-1m8,0l1,1l-1,-1m23,0l1,1l-1,-1z" fill="#9ea2c2" id="svg_414"/>
  <path d="m219,66l1,1l-1,-1z" fill="#5f679a" id="svg_415"/>
  <path d="m258,66l1,1l-1,-1m7,0l1,1l-1,-1z" fill="#9ea2c2" id="svg_416"/>
  <path d="m267.333,66.667l0.334,0.666l-0.334,-0.666m60.667,-0.667l0,7l1,0l-1,-7m28,0l1,1l-1,-1m34,0l1,1l-1,-1z" fill="#5f679a" id="svg_417"/>
  <path d="m41.333,67.667l0.334,0.666l-0.334,-0.666z" fill="#9ea2c2" id="svg_418"/>
  <path d="m42.333,67.667l0.334,0.666l-0.334,-0.666z" fill="#5f679a" id="svg_419"/>
  <path d="m111,67l1,1l-1,-1z" fill="#9ea2c2" id="svg_420"/>
  <path d="m115.333,67.667l0.334,0.666l-0.334,-0.666m10.667,-0.667l1,1l-1,-1z" fill="#5f679a" id="svg_421"/>
  <path d="m127,67l1,1l-1,-1z" fill="#071161" id="svg_422"/>
  <path d="m219,67l1,1l-1,-1z" fill="#9ea2c2" id="svg_423"/>
  <path d="m238,67l1,1l-1,-1m45,0l1,1l-1,-1z" fill="#5f679a" id="svg_424"/>
  <path d="m343.333,67.667l0.334,0.666l-0.334,-0.666z" fill="#071161" id="svg_425"/>
  <path d="m357,67l1,1l-1,-1m32,0l1,1l-1,-1z" fill="#5f679a" id="svg_426"/>
  <path d="m27,68l0,4l1,0l-1,-4z" fill="#9ea2c2" id="svg_427"/>
  <path d="m79,68l1,1l-1,-1z" fill="#5f679a" id="svg_428"/>
  <path d="m127,68l1,1l-1,-1z" fill="#9ea2c2" id="svg_429"/>
  <path d="m158,68l0,4l1,0l-1,-4z" fill="#071161" id="svg_430"/>
  <path d="m266,68l1,1l-1,-1m18,0l1,1l-1,-1m31,0l1,1l-1,-1m43,0l1,1l-1,-1m29,0l1,1l-1,-1m-276,1l1,1l-1,-1z" fill="#9ea2c2" id="svg_431"/>
  <path d="m112,69l1,1l-1,-1z" fill="#071161" id="svg_432"/>
  <path d="m118,69l1,1l-1,-1m100,0l1,1l-1,-1m56.333,0.667l0.334,0.666l-0.334,-0.666z" fill="#5f679a" id="svg_433"/>
  <path d="m285,69l1,1l-1,-1m29,0l1,1l-1,-1z" fill="#9ea2c2" id="svg_434"/>
  <path d="m359,69l1,1l-1,-1z" fill="#5f679a" id="svg_435"/>
  <path d="m386,69l1,1l-1,-1m-306,1l1,1l-1,-1m69,0l-1,2l1,-2m69.333,0.667l0.334,0.666l-0.334,-0.666m18.667,-0.667l1,1l-1,-1m18,0l0,3l1,0l-1,-3m4.667,0.333l0.666,0.334l-0.666,-0.334z" fill="#9ea2c2" id="svg_436"/>
  <path d="m286,70l1,1l-1,-1z" fill="#5f679a" id="svg_437"/>
  <path d="m303,70l1,1l-1,-1m9,0l1,1l-1,-1z" fill="#9ea2c2" id="svg_438"/>
  <path d="m313,70l1,1l-1,-1m47,0l1,1l-1,-1m25,0l1,1l-1,-1m-305,1l1,1l-1,-1z" fill="#5f679a" id="svg_439"/>
  <path d="m111,71l1,1l-1,-1z" fill="#9ea2c2" id="svg_440"/>
  <path d="m149,71l1,1l-1,-1m88,0l1,1l-1,-1z" fill="#5f679a" id="svg_441"/>
  <path d="m274.333,71.667l0.334,0.666l-0.334,-0.666m13.667,-0.667l1,1l-1,-1z" fill="#9ea2c2" id="svg_442"/>
  <path d="m311,71l1,1l-1,-1z" fill="#5f679a" id="svg_443"/>
  <path d="m362,71l1,1l-1,-1z" fill="#9ea2c2" id="svg_444"/>
  <path d="m383,71l1,1l-1,-1m-356,1l1,1l-1,-1z" fill="#5f679a" id="svg_445"/>
  <path d="m66,72l1,1l-1,-1m63,0l0,1l7,0l-7,-1z" fill="#9ea2c2" id="svg_446"/>
  <path d="m136,72l0,1l6,0l-6,-1m82,0l1,1l-1,-1z" fill="#5f679a" id="svg_447"/>
  <path d="m290,72l1,1l-1,-1m18,0l1,1l-1,-1z" fill="#9ea2c2" id="svg_448"/>
  <path d="m309,72l1,1l-1,-1z" fill="#5f679a" id="svg_449"/>
  <path d="m364,72l1,1l-1,-1m16,0l1,1l-1,-1z" fill="#9ea2c2" id="svg_450"/>
  <path d="m381,72l1,1l-1,-1z" fill="#5f679a" id="svg_451"/>
 </g>

</svg>