<svg width="170" height="110" xmlns="http://www.w3.org/2000/svg">

 <g>
  <title>Layer 1</title>
  <path id="svg_2" fill="#33184c" d="m47.667,7.333l0.666,0.334l-0.666,-0.334m-8.667,0.667l1,1l-1,-1z"/>
  <path id="svg_3" fill="#611f36" d="m40.667,8.333l0.666,0.334l-0.666,-0.334z"/>
  <path id="svg_4" fill="#94271d" d="m59,63c-2.473,3.666 -4.755,7.539 -7.518,10.996c-9.494,11.882 -18.054,4.618 -19.311,-7.996c-1.02,-10.234 1.914,-23.186 7.182,-31.999c1.687,-2.823 7.22,-10.145 10.815,-5.639c3.183,3.99 -1.068,13.834 -1.168,18.638c5.146,0 18.391,2.373 22.142,-1.603c9.154,-9.704 -1.321,-38.907 -16.142,-33.397l2,-3l-3,1l-2,3l1,-5c-29.95,0 -46.195,26.783 -45.995,55c0.09,12.737 4.486,29.152 16.995,35.08c12.439,5.895 27.635,1.507 36.816,-8.17c8.712,-9.184 13.23,-21.357 -1.816,-26.91z"/>
  <path id="svg_5" fill="#611f36" d="m53.333,8.667l0.334,0.666l-0.334,-0.666z"/>
  <path id="svg_6" fill="#441b44" d="m54,8l1,1l-1,-1z"/>
  <path id="svg_7" fill="#33184c" d="m55,8l1,1l-1,-1z"/>
  <path id="svg_8" fill="#441b44" d="m36,9l1,1l-1,-1z"/>
  <path id="svg_9" fill="#611f36" d="m57,9l-2,2l0,1l2,-3z"/>
  <path id="svg_10" fill="#441b44" d="m58,9l1,1l-1,-1z"/>
  <path id="svg_11" fill="#33184c" d="m85.667,9.333l0.666,0.334l-0.666,-0.334z"/>
  <path id="svg_12" fill="#441b44" d="m87,9l0,1l4,0l-4,-1z"/>
  <path id="svg_13" fill="#611f36" d="m91,9l0,1l10,1l-10,-2z"/>
  <path id="svg_14" fill="#441b44" d="m100,9l1,1l-1,-1m37,0l1,1l-1,-1z"/>
  <path id="svg_15" fill="#94271d" d="m136,12l13,-1l-14.926,5.317l-16.074,34.683c-0.679,-7.772 -5.103,-32.586 -12.225,-36.566c-6.292,-3.517 -15.784,-0.755 -22.775,-2.434c0.502,22.053 -2.734,43.996 -2.996,66c-0.057,4.763 -2.797,17.974 0.6,21.397c3.774,3.802 17.7,0.977 22.396,-0.397l-2,-3c1.676,-2.167 3.673,-7.388 0,-8l3,-17l1,0c1.066,7.221 4.902,26.623 15.957,20.82c6.521,-3.423 10.346,-15.342 13.043,-21.82c2.346,8.532 -2.708,18.425 -0.643,26.852c1.21,4.939 21.707,6.45 23.325,1c2.215,-7.46 0.318,-18.079 0.318,-25.852c0,-16.6 2.619,-35.67 -0.329,-52c-1.655,-9.166 -13.534,-15.288 -20.671,-8z"/>
  <path id="svg_16" fill="#611f36" d="m148,9l1,1l-1,-1z"/>
  <path id="svg_17" fill="#33184c" d="m149,9l1,1l-1,-1m-116,1l1,1l-1,-1z"/>
  <path id="svg_18" fill="#611f36" d="m34,10l1,1l-1,-1z"/>
  <path id="svg_19" fill="#33184c" d="m53,10l-1,2l1,-2z"/>
  <path id="svg_20" fill="#441b44" d="m54,10l1,1l-1,-1m2,0l1,1l-1,-1z"/>
  <path id="svg_21" fill="#611f36" d="m60,10l1,1l-1,-1z"/>
  <path id="svg_22" fill="#33184c" d="m83,10l1,1l-1,-1z"/>
  <path id="svg_23" fill="#94271d" d="m84,10l0,1l20,1l-20,-2z"/>
  <path id="svg_24" fill="#441b44" d="m101,10l1,1l-1,-1z"/>
  <path id="svg_25" fill="#611f36" d="m102,10l1,1l-1,-1z"/>
  <path id="svg_26" fill="#33184c" d="m103,10l1,1l-1,-1z"/>
  <path id="svg_27" fill="#611f36" d="m136,10l1,1l-1,-1m9.667,0.333l0.666,0.334l-0.666,-0.334z"/>
  <path id="svg_28" fill="#33184c" d="m151,10l1,1l-1,-1m-120,1l1,1l-1,-1z"/>
  <path id="svg_29" fill="#611f36" d="m32,11l1,1l-1,-1z"/>
  <path id="svg_30" fill="#441b44" d="m38,11l1,1l-1,-1z"/>
  <path id="svg_31" fill="#611f36" d="m41,11l1,1l-1,-1m12,0l-1,2l1,-2m9,0l1,1l-1,-1m21.667,0.333l0.666,0.334l-0.666,-0.334z"/>
  <path id="svg_32" fill="#441b44" d="m88.667,11.333l0.666,0.334l-0.666,-0.334z"/>
  <path id="svg_33" fill="#611f36" d="m90,11l1,1l-1,-1m3,0l1,1l-1,-1z"/>
  <path id="svg_34" fill="#071161" d="m94,11l-6,1l0,1l6,-2z"/>
  <path id="svg_35" fill="#33184c" d="m95,11l3,2l0,-1l-3,-1z"/>
  <path id="svg_36" fill="#441b44" d="m96.667,11.333l0.666,0.334l-0.666,-0.334z"/>
  <path id="svg_37" fill="#611f36" d="m98,11l1,1l-1,-1m6,0l1,1l-1,-1z"/>
  <path id="svg_38" fill="#33184c" d="m135,11l1,1l-1,-1m1,1l0,1l5,0l-5,-1z"/>
  <path id="svg_39" fill="#611f36" d="m140,11l1,1l-1,-1m7.667,0.333l0.666,0.334l-0.666,-0.334m4.333,-0.333l1,1l-1,-1m-122,1l1,1l-1,-1z"/>
  <path id="svg_40" fill="#33184c" d="m42,12l1,1l-1,-1z"/>
  <path id="svg_41" fill="#611f36" d="m43,12l1,1l-1,-1z"/>
  <path id="svg_42" fill="#071161" d="m53,12l1,1l-1,-1z"/>
  <path id="svg_43" fill="#33184c" d="m64,12l1,1l-1,-1z"/>
  <path id="svg_44" fill="#071161" d="m84,12l1,1l-1,-1z"/>
  <path id="svg_45" fill="#33184c" d="m85,12l1,1l-1,-1z"/>
  <path id="svg_46" fill="#071161" d="m86,12l1,1l-1,-1z"/>
  <path id="svg_47" fill="#33184c" d="m87,12l1,1l-1,-1z"/>
  <path id="svg_48" fill="#071161" d="m98,12l0,1l3,0l-3,-1z"/>
  <path id="svg_49" fill="#33184c" d="m101,12l0,1l4,0l-4,-1z"/>
  <path id="svg_50" fill="#071161" d="m141,12l0,1l8,0l-8,-1z"/>
  <path id="svg_51" fill="#611f36" d="m153,12l1,1l-1,-1z"/>
  <path id="svg_52" fill="#33184c" d="m28,13l1,1l-1,-1z"/>
  <path id="svg_53" fill="#611f36" d="m42,13l1,1l-1,-1m9,0l1,1l-1,-1z"/>
  <path id="svg_54" fill="#441b44" d="m65,13l1,1l-1,-1z"/>
  <path id="svg_55" fill="#611f36" d="m91.667,13.333l0.666,0.334l-0.666,-0.334m11.333,-0.333l0,1l4,0l-4,-1z"/>
  <path id="svg_56" fill="#33184c" d="m134,13l1,1l-1,-1z"/>
  <path id="svg_57" fill="#611f36" d="m135,13l0,1l6,0l-6,-1z"/>
  <path id="svg_58" fill="#441b44" d="m154,13l1,1l-1,-1m-127,1l1,1l-1,-1z"/>
  <path id="svg_59" fill="#611f36" d="m66,14l1,1l-1,-1m41,0l1,1l-1,-1m27,0l1,1l-1,-1z"/>
  <path id="svg_60" fill="#33184c" d="m155,14l1,1l-1,-1z"/>
  <path id="svg_61" fill="#611f36" d="m26,15l1,1l-1,-1m41,0l1,1l-1,-1z"/>
  <path id="svg_62" fill="#33184c" d="m108,15l1,1l-1,-1z"/>
  <path id="svg_63" fill="#611f36" d="m155,15l1,1l-1,-1m-130,1l1,1l-1,-1z"/>
  <path id="svg_64" fill="#441b44" d="m68,16l1,1l-1,-1z"/>
  <path id="svg_65" fill="#33184c" d="m82,16l0,5l1,0l-1,-5z"/>
  <path id="svg_66" fill="#611f36" d="m108,16l1,1l-1,-1z"/>
  <path id="svg_67" fill="#441b44" d="m133,16l1,1l-1,-1z"/>
  <path id="svg_68" fill="#611f36" d="m24,17l1,1l-1,-1z"/>
  <path id="svg_69" fill="#33184c" d="m69,17l1,1l-1,-1z"/>
  <path id="svg_70" fill="#611f36" d="m83,17l1,1l-1,-1z"/>
  <path id="svg_71" fill="#33184c" d="m109,17l1,1l-1,-1z"/>
  <path id="svg_72" fill="#441b44" d="m156,17l1,1l-1,-1z"/>
  <path id="svg_73" fill="#611f36" d="m23,18l1,1l-1,-1z"/>
  <path id="svg_74" fill="#441b44" d="m109,18l1,1l-1,-1z"/>
  <path id="svg_75" fill="#33184c" d="m132,18l1,1l-1,-1z"/>
  <path id="svg_76" fill="#611f36" d="m156,18l1,1l-1,-1z"/>
  <path id="svg_77" fill="#441b44" d="m22,19l1,1l-1,-1z"/>
  <path id="svg_78" fill="#611f36" d="m70,19l1,1l-1,-1m39,0l1,1l-1,-1m23,0l1,1l-1,-1z"/>
  <path id="svg_79" fill="#33184c" d="m21,20l1,1l-1,-1m-1,1l1,1l-1,-1z"/>
  <path id="svg_80" fill="#611f36" d="m51,21l1,1l-1,-1m20,0l1,1l-1,-1z"/>
  <path id="svg_81" fill="#441b44" d="m82,21l0,3l1,0l-1,-3z"/>
  <path id="svg_82" fill="#33184c" d="m110,21l1,1l-1,-1z"/>
  <path id="svg_83" fill="#611f36" d="m131,21l1,1l-1,-1z"/>
  <path id="svg_84" fill="#071161" d="m51,22l1,1l-1,-1z"/>
  <path id="svg_85" fill="#611f36" d="m110,22l1,1l-1,-1z"/>
  <path id="svg_86" fill="#33184c" d="m157,22l0,37l1,0c0,-10.649 3.111,-27.202 -1,-37z"/>
  <path id="svg_87" fill="#611f36" d="m19,23l1,1l-1,-1m25,0l-1,2l2,0l-1,-2m7,0l1,1l-1,-1z"/>
  <path id="svg_88" fill="#441b44" d="m72,23l1,1l-1,-1m58,0l1,1l-1,-1m-112,1l1,1l-1,-1z"/>
  <path id="svg_89" fill="#611f36" d="m72,24l1,1l-1,-1m10,0l0,8l1,0l-1,-8z"/>
  <path id="svg_90" fill="#33184c" d="m111,24l1,1l-1,-1m-94,1l1,1l-1,-1z"/>
  <path id="svg_91" fill="#441b44" d="m111,25l1,1l-1,-1z"/>
  <path id="svg_92" fill="#33184c" d="m129,25l1,1l-1,-1z"/>
  <path id="svg_93" fill="#611f36" d="m17,26l1,1l-1,-1m29.667,0.333l0.666,0.334l-0.666,-0.334z"/>
  <path id="svg_94" fill="#441b44" d="m48,26l1,1l-1,-1z"/>
  <path id="svg_95" fill="#611f36" d="m49,26l1,1l-1,-1z"/>
  <path id="svg_96" fill="#33184c" d="m57.333,26.667l0.334,0.666l-0.334,-0.666m15.667,-0.667l1,1l-1,-1z"/>
  <path id="svg_97" fill="#611f36" d="m111,26l1,1l-1,-1m18,0l1,1l-1,-1z"/>
  <path id="svg_98" fill="#441b44" d="m16,27l1,1l-1,-1z"/>
  <path id="svg_99" fill="#611f36" d="m44,27l1,1l-1,-1z"/>
  <path id="svg_100" fill="#33184c" d="m45,27l1,1l-1,-1z"/>
  <path id="svg_101" fill="#611f36" d="m50,27l1,1l-1,-1m10,0l1,1l-1,-1z"/>
  <path id="svg_102" fill="#441b44" d="m61,27l1,1l-1,-1m12,0l1,1l-1,-1z"/>
  <path id="svg_103" fill="#611f36" d="m108.333,27.667l0.334,0.666l-0.334,-0.666z"/>
  <path id="svg_104" fill="#441b44" d="m43,28l1,1l-1,-1z"/>
  <path id="svg_105" fill="#611f36" d="m73.333,28.667l0.334,0.666l-0.334,-0.666z"/>
  <path id="svg_106" fill="#33184c" d="m112,28l1,1l-1,-1z"/>
  <path id="svg_107" fill="#441b44" d="m128,28l1,1l-1,-1z"/>
  <path id="svg_108" fill="#611f36" d="m15,29l1,1l-1,-1z"/>
  <path id="svg_109" fill="#441b44" d="m42,29l1,1l-1,-1z"/>
  <path id="svg_110" fill="#611f36" d="m51,29l0,3l1,0l-1,-3m9,0l1,1l-1,-1z"/>
  <path id="svg_111" fill="#071161" d="m61.333,29.667l0.334,0.666l-0.334,-0.666z"/>
  <path id="svg_112" fill="#441b44" d="m62,29l1,1l-1,-1z"/>
  <path id="svg_113" fill="#611f36" d="m112,29l1,1l-1,-1m33.667,0.333l0.666,0.334l-0.666,-0.334z"/>
  <path id="svg_114" fill="#33184c" d="m14,30l1,1l-1,-1z"/>
  <path id="svg_115" fill="#441b44" d="m41,30l1,1l-1,-1z"/>
  <path id="svg_116" fill="#611f36" d="m56,30l-1,2l1,-2z"/>
  <path id="svg_117" fill="#441b44" d="m57,30l1,1l-1,-1z"/>
  <path id="svg_118" fill="#611f36" d="m58.333,30.667l0.334,0.666l-0.334,-0.666z"/>
  <path id="svg_119" fill="#33184c" d="m60,30l1,1l-1,-1m2,0l1,1l-1,-1m65,0l1,1l-1,-1z"/>
  <path id="svg_120" fill="#611f36" d="m14,31l1,1l-1,-1m26,0l1,1l-1,-1z"/>
  <path id="svg_121" fill="#33184c" d="m56.667,31.333l0.666,0.334l-0.666,-0.334z"/>
  <path id="svg_122" fill="#611f36" d="m61,31l-1,2l1,-2z"/>
  <path id="svg_123" fill="#33184c" d="m113,31l1,1l-1,-1z"/>
  <path id="svg_124" fill="#611f36" d="m127,31l1,1l-1,-1z"/>
  <path id="svg_125" fill="#33184c" d="m142,31l1,1l-1,-1z"/>
  <path id="svg_126" fill="#611f36" d="m143,31l1,1l-1,-1z"/>
  <path id="svg_127" fill="#33184c" d="m13,32l1,1l-1,-1m27,0l1,1l-1,-1z"/>
  <path id="svg_128" fill="#071161" d="m61,32l1,1l-1,-1z"/>
  <path id="svg_129" fill="#441b44" d="m62,32l-1,2l2,0l-1,-2m51,0l1,1l-1,-1z"/>
  <path id="svg_130" fill="#33184c" d="m126,32l1,1l-1,-1z"/>
  <path id="svg_131" fill="#611f36" d="m13,33l1,1l-1,-1z"/>
  <path id="svg_132" fill="#33184c" d="m23,33l1,1l-1,-1z"/>
  <path id="svg_133" fill="#611f36" d="m26,33l1,1l-1,-1m13,0l1,1l-1,-1m74,0l1,1l-1,-1m13,0l1,1l-1,-1z"/>
  <path id="svg_134" fill="#33184c" d="m12,34l1,1l-1,-1z"/>
  <path id="svg_135" fill="#611f36" d="m23,34l1,1l-1,-1z"/>
  <path id="svg_136" fill="#441b44" d="m24,34l0,3l1,0l-1,-3z"/>
  <path id="svg_137" fill="#33184c" d="m50.333,34.667l0.334,0.666l-0.334,-0.666z"/>
  <path id="svg_138" fill="#611f36" d="m106,34l1,1l-1,-1m-94,1l1,1l-1,-1m8.333,0.667l0.334,0.666l-0.334,-0.666z"/>
  <path id="svg_139" fill="#071161" d="m24,35l1,1l-1,-1z"/>
  <path id="svg_140" fill="#441b44" d="m38,35l1,1l-1,-1z"/>
  <path id="svg_141" fill="#33184c" d="m114,35l1,1l-1,-1z"/>
  <path id="svg_142" fill="#441b44" d="m125,35l1,1l-1,-1z"/>
  <path id="svg_143" fill="#611f36" d="m23,36l1,1l-1,-1m27,0l1,1l-1,-1m23,0l0,3l1,0l-1,-3m41,0l1,1l-1,-1m31.667,0.333l0.666,0.334l-0.666,-0.334z"/>
  <path id="svg_144" fill="#441b44" d="m11,37l1,1l-1,-1m9,0l1,1l-1,-1z"/>
  <path id="svg_145" fill="#33184c" d="m21,37l1,1l-1,-1z"/>
  <path id="svg_146" fill="#611f36" d="m37,37l1,1l-1,-1z"/>
  <path id="svg_147" fill="#33184c" d="m124,37l1,1l-1,-1m-9,1l1,1l-1,-1z"/>
  <path id="svg_148" fill="#611f36" d="m124,38l1,1l-1,-1z"/>
  <path id="svg_149" fill="#33184c" d="m10,39l1,1l-1,-1z"/>
  <path id="svg_150" fill="#611f36" d="m18,39l2,2l-2,-2m18,0l1,1l-1,-1z"/>
  <path id="svg_151" fill="#33184c" d="m49,39l1,1l-1,-1z"/>
  <path id="svg_152" fill="#441b44" d="m73,39l1,1l-1,-1z"/>
  <path id="svg_153" fill="#33184c" d="m81,39l0,4l1,0l-1,-4z"/>
  <path id="svg_154" fill="#441b44" d="m115,39l1,1l-1,-1z"/>
  <path id="svg_155" fill="#611f36" d="m10,40l1,1l-1,-1z"/>
  <path id="svg_156" fill="#441b44" d="m18,40l1,1l-1,-1z"/>
  <path id="svg_157" fill="#611f36" d="m21,40l1,1l-1,-1z"/>
  <path id="svg_158" fill="#441b44" d="m36,40l1,1l-1,-1z"/>
  <path id="svg_159" fill="#611f36" d="m49,40l1,1l-1,-1z"/>
  <path id="svg_160" fill="#33184c" d="m73,40l1,1l-1,-1z"/>
  <path id="svg_161" fill="#611f36" d="m115,40l1,1l-1,-1m8,0l1,1l-1,-1z"/>
  <path id="svg_162" fill="#441b44" d="m20,41l1,1l-1,-1z"/>
  <path id="svg_163" fill="#33184c" d="m21,41l1,1l-1,-1z"/>
  <path id="svg_164" fill="#441b44" d="m22,41l1,1l-1,-1z"/>
  <path id="svg_165" fill="#33184c" d="m9,42l1,1l-1,-1z"/>
  <path id="svg_166" fill="#611f36" d="m35,42l1,1l-1,-1z"/>
  <path id="svg_167" fill="#441b44" d="m116,42l1,1l-1,-1m6,0l1,1l-1,-1m-113,1l1,1l-1,-1z"/>
  <path id="svg_168" fill="#611f36" d="m23.667,43.333l0.666,0.334l-0.666,-0.334z"/>
  <path id="svg_169" fill="#441b44" d="m35,43l1,1l-1,-1m13,0l1,1l-1,-1z"/>
  <path id="svg_170" fill="#611f36" d="m72,43l1,1l-1,-1z"/>
  <path id="svg_171" fill="#441b44" d="m81,43l0,3l1,0l-1,-3z"/>
  <path id="svg_172" fill="#611f36" d="m116,43l1,1l-1,-1m-107,1l1,1l-1,-1m10,0l2,3l-2,-3m29,0l1,1l-1,-1z"/>
  <path id="svg_173" fill="#33184c" d="m72,44l1,1l-1,-1m49,0l1,1l-1,-1z"/>
  <path id="svg_174" fill="#441b44" d="m15,45l1,1l-1,-1m33,0l1,1l-1,-1z"/>
  <path id="svg_175" fill="#33184c" d="m117,45l1,1l-1,-1z"/>
  <path id="svg_176" fill="#611f36" d="m121,45l1,1l-1,-1z"/>
  <path id="svg_177" fill="#33184c" d="m8,46l1,1l-1,-1z"/>
  <path id="svg_178" fill="#611f36" d="m34,46l1,1l-1,-1m37,0l1,1l-1,-1m10,0l0,6l1,0l-1,-6m36,0l1,1l-1,-1z"/>
  <path id="svg_179" fill="#441b44" d="m8,47l1,1l-1,-1m9,0l1,1l-1,-1z"/>
  <path id="svg_180" fill="#33184c" d="m34,47l1,1l-1,-1m16,0l1,1l-1,-1z"/>
  <path id="svg_181" fill="#441b44" d="m51,47l0,1l19,0l-19,-1z"/>
  <path id="svg_182" fill="#33184c" d="m70,47l1,1l-1,-1z"/>
  <path id="svg_183" fill="#441b44" d="m120,47l1,1l-1,-1z"/>
  <path id="svg_184" fill="#611f36" d="m8,48l1,1l-1,-1z"/>
  <path id="svg_185" fill="#441b44" d="m118,49l1,1l-1,-1z"/>
  <path id="svg_186" fill="#33184c" d="m119,49l1,1l-1,-1z"/>
  <path id="svg_187" fill="#441b44" d="m17,50l1,1l-1,-1z"/>
  <path id="svg_188" fill="#33184c" d="m18,50l1,1l-1,-1z"/>
  <path id="svg_189" fill="#611f36" d="m33,50l1,1l-1,-1m85.667,0.333l0.666,0.334l-0.666,-0.334z"/>
  <path id="svg_190" fill="#33184c" d="m7,51l1,1l-1,-1z"/>
  <path id="svg_191" fill="#611f36" d="m18,51l1,1l-1,-1z"/>
  <path id="svg_192" fill="#441b44" d="m33,51l1,1l-1,-1m-25.667,1.667l0.334,0.666l-0.334,-0.666z"/>
  <path id="svg_193" fill="#611f36" d="m23.333,52.667l0.334,0.666l-0.334,-0.666z"/>
  <path id="svg_194" fill="#33184c" d="m33,52l1,1l-1,-1z"/>
  <path id="svg_195" fill="#611f36" d="m142,52l1,1l-1,-1m-134.667,2.667l0.334,0.666l-0.334,-0.666m110.667,-0.667l1,1l-1,-1z"/>
  <path id="svg_196" fill="#071161" d="m119,54l1,1l-1,-1z"/>
  <path id="svg_197" fill="#611f36" d="m32,56l0,3l1,0l-1,-3m107,1l1,1l-1,-1m-55,1l1,1l-1,-1m33,0l1,1l-1,-1z"/>
  <path id="svg_198" fill="#33184c" d="m8.333,59.667l0.334,0.666l-0.334,-0.666z"/>
  <path id="svg_199" fill="#441b44" d="m32,59l0,8l1,0l-1,-8z"/>
  <path id="svg_200" fill="#33184c" d="m80,59l0,4l1,0l-1,-4m46,0l1,1l-1,-1z"/>
  <path id="svg_201" fill="#071161" d="m127,59l1,1l-1,-1z"/>
  <path id="svg_202" fill="#441b44" d="m157,59l0,29l1,0l-1,-29z"/>
  <path id="svg_203" fill="#611f36" d="m119,61l0,1l3,0l0,-1l-3,0m-35,0l1,1l-1,-1z"/>
  <path id="svg_204" fill="#441b44" d="m120,61l1,1l-1,-1z"/>
  <path id="svg_205" fill="#33184c" d="m58,63l1,1l-1,-1z"/>
  <path id="svg_206" fill="#611f36" d="m61,63l1,1l-1,-1z"/>
  <path id="svg_207" fill="#441b44" d="m80,63l0,4l1,0l-1,-4z"/>
  <path id="svg_208" fill="#611f36" d="m118,63l1,1l-1,-1m10,0l1,1l-1,-1z"/>
  <path id="svg_209" fill="#33184c" d="m57,64l1,1l-1,-1z"/>
  <path id="svg_210" fill="#611f36" d="m83,64l0,3l1,0l-1,-3m-26,1l1,1l-1,-1m3.333,0.667l0.334,0.666l-0.334,-0.666m2.667,-0.667l1,1l-1,-1z"/>
  <path id="svg_211" fill="#441b44" d="m56,66l1,1l-1,-1z"/>
  <path id="svg_212" fill="#611f36" d="m64,66l1,1l-1,-1m-31.667,1.667l0.334,0.666l-0.334,-0.666m32.667,-0.667l1,1l-1,-1m15,0l0,5l1,0l-1,-5z"/>
  <path id="svg_213" fill="#441b44" d="m83.333,67.667l0.334,0.666l-0.334,-0.666z"/>
  <path id="svg_214" fill="#33184c" d="m119,67l1,1l-1,-1z"/>
  <path id="svg_215" fill="#611f36" d="m120,67l1,1l-1,-1m3,0l1,1l-1,-1z"/>
  <path id="svg_216" fill="#441b44" d="m124,67l-1,2l2,0l-1,-2z"/>
  <path id="svg_217" fill="#611f36" d="m55,68l1,1l-1,-1m11,0l1,1l-1,-1m-58.667,1.667l0.334,0.666l-0.334,-0.666z"/>
  <path id="svg_218" fill="#33184c" d="m54,69l1,1l-1,-1z"/>
  <path id="svg_219" fill="#611f36" d="m67,69l1,1l-1,-1m1,1l1,1l-1,-1m15,0l1,1l-1,-1m38,1l0,1l3,0l-3,-1m4,0l0,1l3,0l-3,-1z"/>
  <path id="svg_220" fill="#441b44" d="m134.333,70.667l0.334,0.666l-0.334,-0.666m-127.333,0.333l1,1l-1,-1z"/>
  <path id="svg_221" fill="#611f36" d="m53,71l1,1l-1,-1m16,0l1,1l-1,-1z"/>
  <path id="svg_222" fill="#071161" d="m83,71l0,4l1,0l-1,-4z"/>
  <path id="svg_223" fill="#611f36" d="m104,71l1,1l-1,-1z"/>
  <path id="svg_224" fill="#441b44" d="m122,71l1,1l-1,-1z"/>
  <path id="svg_225" fill="#071161" d="m126.333,71.667l0.334,0.666l-0.334,-0.666z"/>
  <path id="svg_226" fill="#611f36" d="m133,71l1,1l-1,-1z"/>
  <path id="svg_227" fill="#33184c" d="m7,72l1,1l-1,-1m26,0l1,1l-1,-1m19,0l1,1l-1,-1z"/>
  <path id="svg_228" fill="#441b44" d="m70,72l1,1l-1,-1z"/>
  <path id="svg_229" fill="#33184c" d="m104,72l1,1l-1,-1m21,0l1,1l-1,-1z"/>
  <path id="svg_230" fill="#611f36" d="m134,72l0,5l1,0l-1,-5m-101,1l1,1l-1,-1m92.667,0.333l0.666,0.334l-0.666,-0.334m6.333,-0.333l1,1l-1,-1m-81,1l1,1l-1,-1m54,0l1,1l-1,-1m-97,1l1,1l-1,-1z"/>
  <path id="svg_231" fill="#441b44" d="m50,75l1,1l-1,-1m20,0l1,1l-1,-1z"/>
  <path id="svg_232" fill="#611f36" d="m82,75l-1,2l1,-2z"/>
  <path id="svg_233" fill="#33184c" d="m83,75l0,3l1,0l-1,-3m22,0l1,1l-1,-1z"/>
  <path id="svg_234" fill="#611f36" d="m131,75l1,1l-1,-1z"/>
  <path id="svg_235" fill="#441b44" d="m8,76l1,1l-1,-1m2,0l1,1l-1,-1z"/>
  <path id="svg_236" fill="#33184c" d="m11,76l1,1l-1,-1z"/>
  <path id="svg_237" fill="#441b44" d="m34,76l1,1l-1,-1z"/>
  <path id="svg_238" fill="#33184c" d="m49,76l1,1l-1,-1z"/>
  <path id="svg_239" fill="#071161" d="m82,76l0,10l1,0l-1,-10z"/>
  <path id="svg_240" fill="#611f36" d="m103,76l0,7l1,0l-1,-7z"/>
  <path id="svg_241" fill="#33184c" d="m131,76l1,1l-1,-1m-123,1l1,1l-1,-1m40,0l1,1l-1,-1z"/>
  <path id="svg_242" fill="#441b44" d="m69,77l1,1l-1,-1z"/>
  <path id="svg_243" fill="#33184c" d="m81,77l1,1l-1,-1z"/>
  <path id="svg_244" fill="#611f36" d="m106,77l1,1l-1,-1m24,0l1,1l-1,-1m-95,1l1,1l-1,-1z"/>
  <path id="svg_245" fill="#441b44" d="m47,78l1,1l-1,-1m34,0l0,3l1,0l-1,-3m2.333,0.667l0.334,0.666l-0.334,-0.666z"/>
  <path id="svg_246" fill="#33184c" d="m106,78l1,1l-1,-1m24,0l1,1l-1,-1z"/>
  <path id="svg_247" fill="#611f36" d="m9,79l1,1l-1,-1m27,0l1,1l-1,-1m10,0l1,1l-1,-1z"/>
  <path id="svg_248" fill="#33184c" d="m68,79l1,1l-1,-1m11,0l0,5l1,0l-1,-5z"/>
  <path id="svg_249" fill="#611f36" d="m129,79l1,1l-1,-1z"/>
  <path id="svg_250" fill="#33184c" d="m9,80l1,1l-1,-1z"/>
  <path id="svg_251" fill="#441b44" d="m38,80l1,1l-1,-1z"/>
  <path id="svg_252" fill="#33184c" d="m43,80l1,1l-1,-1z"/>
  <path id="svg_253" fill="#611f36" d="m44,80l1,1l-1,-1m23,0l1,1l-1,-1m16,0l0,5l1,0l-1,-5m24,0l1,1l-1,-1z"/>
  <path id="svg_254" fill="#33184c" d="m129,80l1,1l-1,-1m13,0l1,1l-1,-1z"/>
  <path id="svg_255" fill="#611f36" d="m143,80l1,1l-1,-1m-62,1l0,3l1,0l-1,-3z"/>
  <path id="svg_256" fill="#33184c" d="m107,81l1,1l-1,-1z"/>
  <path id="svg_257" fill="#611f36" d="m128,81l1,1l-1,-1m14,0l1,1l-1,-1z"/>
  <path id="svg_258" fill="#441b44" d="m10,82l1,1l-1,-1m56,0l1,1l-1,-1z"/>
  <path id="svg_259" fill="#33184c" d="m128,82l1,1l-1,-1m5,0l0,4l1,0l-1,-4z"/>
  <path id="svg_260" fill="#611f36" d="m65,83l1,1l-1,-1z"/>
  <path id="svg_261" fill="#441b44" d="m103.333,83.667l0.334,0.666l-0.334,-0.666z"/>
  <path id="svg_262" fill="#611f36" d="m108,83l1,1l-1,-1m19,0l1,1l-1,-1m24,0l1,1l-1,-1m-140,1l1,1l-1,-1z"/>
  <path id="svg_263" fill="#441b44" d="m79,84l0,3l1,0l-1,-3m29,0l1,1l-1,-1z"/>
  <path id="svg_264" fill="#611f36" d="m117.667,84.333l0.666,0.334l-0.666,-0.334z"/>
  <path id="svg_265" fill="#33184c" d="m127,84l1,1l-1,-1z"/>
  <path id="svg_266" fill="#441b44" d="m64,85l1,1l-1,-1z"/>
  <path id="svg_267" fill="#611f36" d="m103,85l-2,3l2,-3z"/>
  <path id="svg_268" fill="#441b44" d="m118,85l1,1l-1,-1z"/>
  <path id="svg_269" fill="#071161" d="m119,85l1,1l-1,-1z"/>
  <path id="svg_270" fill="#611f36" d="m120,85l1,1l-1,-1m2,0l0,2l2,0l-2,-2m4,0l1,1l-1,-1m-114,1l1,1l-1,-1m51,0l1,1l-1,-1z"/>
  <path id="svg_271" fill="#33184c" d="m82.333,86.667l0.334,0.666l-0.334,-0.666z"/>
  <path id="svg_272" fill="#071161" d="m101,86l1,1l-1,-1z"/>
  <path id="svg_273" fill="#441b44" d="m103,86l0,6l1,0l-1,-6z"/>
  <path id="svg_274" fill="#611f36" d="m109,86l1,1l-1,-1z"/>
  <path id="svg_275" fill="#33184c" d="m126,86l1,1l-1,-1z"/>
  <path id="svg_276" fill="#441b44" d="m133.333,86.667l0.334,0.666l-0.334,-0.666z"/>
  <path id="svg_277" fill="#611f36" d="m79,87l0,6l1,0l-1,-6m16,0l1,1l-1,-1z"/>
  <path id="svg_278" fill="#441b44" d="m109,87l1,1l-1,-1z"/>
  <path id="svg_279" fill="#611f36" d="m125,87l1,1l-1,-1z"/>
  <path id="svg_280" fill="#441b44" d="m13,88l1,1l-1,-1z"/>
  <path id="svg_281" fill="#611f36" d="m82,88l0,6l1,0l-1,-6m51,0l0,5l1,0l-1,-5m24,0l0,11l1,0l-1,-11m-143,1l1,1l-1,-1z"/>
  <path id="svg_282" fill="#33184c" d="m61,89l1,1l-1,-1z"/>
  <path id="svg_283" fill="#611f36" d="m110,89l1,1l-1,-1z"/>
  <path id="svg_284" fill="#33184c" d="m124,89l1,1l-1,-1m-64,1l1,1l-1,-1z"/>
  <path id="svg_285" fill="#441b44" d="m123,90l1,1l-1,-1z"/>
  <path id="svg_286" fill="#33184c" d="m15,91l1,1l-1,-1m44,0l1,1l-1,-1z"/>
  <path id="svg_287" fill="#441b44" d="m93,91l1,1l-1,-1z"/>
  <path id="svg_288" fill="#33184c" d="m111,91l1,1l-1,-1m11,0l1,1l-1,-1z"/>
  <path id="svg_289" fill="#441b44" d="m16,92l1,1l-1,-1z"/>
  <path id="svg_290" fill="#33184c" d="m58,92l1,1l-1,-1z"/>
  <path id="svg_291" fill="#611f36" d="m93,92l1,1l-1,-1z"/>
  <path id="svg_292" fill="#33184c" d="m103,92l0,6l1,0l-1,-6z"/>
  <path id="svg_293" fill="#611f36" d="m113,92l1,1l-1,-1m7,0l1,1l-1,-1m-103,1l1,1l-1,-1m39,0l1,1l-1,-1z"/>
  <path id="svg_294" fill="#441b44" d="m83,93l-1,2l2,0l-1,-2z"/>
  <path id="svg_295" fill="#33184c" d="m115,93l1,1l-1,-1z"/>
  <path id="svg_296" fill="#441b44" d="m116,93l1,1l-1,-1z"/>
  <path id="svg_297" fill="#33184c" d="m117.667,93.333l0.666,0.334l-0.666,-0.334z"/>
  <path id="svg_298" fill="#441b44" d="m18,94l1,1l-1,-1z"/>
  <path id="svg_299" fill="#611f36" d="m55,94l1,1l-1,-1z"/>
  <path id="svg_300" fill="#33184c" d="m19,95l1,1l-1,-1z"/>
  <path id="svg_301" fill="#611f36" d="m49,95l-1,2l1,-2z"/>
  <path id="svg_302" fill="#33184c" d="m54,95l1,1l-1,-1m28,0l0,4l1,0l-1,-4z"/>
  <path id="svg_303" fill="#441b44" d="m101,95l1,1l-1,-1z"/>
  <path id="svg_304" fill="#611f36" d="m102.333,95.667l0.334,0.666l-0.334,-0.666z"/>
  <path id="svg_305" fill="#33184c" d="m20,96l1,1l-1,-1z"/>
  <path id="svg_306" fill="#611f36" d="m52,96l1,1l-1,-1z"/>
  <path id="svg_307" fill="#071161" d="m82,96l1,1l-1,-1z"/>
  <path id="svg_308" fill="#441b44" d="m22,97l1,1l-1,-1z"/>
  <path id="svg_309" fill="#611f36" d="m34,97l1,1l-1,-1m16,0l1,1l-1,-1z"/>
  <path id="svg_310" fill="#33184c" d="m51,97l1,1l-1,-1z"/>
  <path id="svg_311" fill="#441b44" d="m24,98l1,1l-1,-1z"/>
  <path id="svg_312" fill="#611f36" d="m48,98l1,1l-1,-1z"/>
  <path id="svg_313" fill="#33184c" d="m49,98l1,1l-1,-1z"/>
  <path id="svg_314" fill="#611f36" d="m83,98l1,1l-1,-1z"/>
  <path id="svg_315" fill="#33184c" d="m26,99l1,1l-1,-1z"/>
  <path id="svg_316" fill="#611f36" d="m27,99l1,1l-1,-1m18,0l1,1l-1,-1z"/>
  <path id="svg_317" fill="#441b44" d="m46,99l1,1l-1,-1z"/>
  <path id="svg_318" fill="#611f36" d="m79,99l1,1l-1,-1m16,0l1,1l-1,-1m7,0l1,1l-1,-1z"/>
  <path id="svg_319" fill="#441b44" d="m133,99l1,1l-1,-1z"/>
  <path id="svg_320" fill="#33184c" d="m157,99l1,1l-1,-1m-127,1l1,1l-1,-1z"/>
  <path id="svg_321" fill="#441b44" d="m31,100l1,1l-1,-1z"/>
  <path id="svg_322" fill="#611f36" d="m32.667,100.333l0.666,0.334l-0.666,-0.334m8,0l0.666,0.334l-0.666,-0.334z"/>
  <path id="svg_323" fill="#441b44" d="m42,100l1,1l-1,-1z"/>
  <path id="svg_324" fill="#33184c" d="m43,100l1,1l-1,-1z"/>
  <path id="svg_325" fill="#611f36" d="m80,100l1,1l-1,-1m11,0l0,1l3,0l-3,-1z"/>
  <path id="svg_326" fill="#441b44" d="m94,100l1,1l-1,-1z"/>
  <path id="svg_327" fill="#33184c" d="m134,100l1,1l-1,-1z"/>
  <path id="svg_328" fill="#611f36" d="m135,100l0,1l10,0l-10,-1z"/>
  <path id="svg_329" fill="#441b44" d="m156,100l1,1l-1,-1z"/>
 </g>
</svg>